<svg width="108" height="122" viewBox="0 0 108 122" fill="none" xmlns="http://www.w3.org/2000/svg">
<path d="M42.8587 80.3442L43.2873 79.6011C30.8848 72.4231 20.4426 64.2044 13.133 56.3728C9.47817 52.458 6.60589 48.64 4.66299 45.1166C2.71608 41.5944 1.71057 38.3707 1.71458 35.6731C1.71458 34.0465 2.06978 32.6141 2.79086 31.3583C3.78568 29.634 5.42678 28.3327 7.71152 27.4411C9.99226 26.5509 12.9006 26.0971 16.2977 26.0984C28.3664 26.0863 46.4641 31.8255 64.7113 42.3976C77.1152 49.5761 87.5575 57.7932 94.8671 65.6258C98.5219 69.5407 101.393 73.3586 103.337 76.8823C105.283 80.4043 106.289 83.6283 106.285 86.3247C106.284 87.951 105.93 89.3833 105.209 90.6389C104.214 92.3636 102.573 93.6647 100.288 94.5579C98.0077 95.4463 95.098 95.9003 91.7023 95.8992C79.6323 95.9097 61.5346 90.1719 43.2873 79.6011L42.8587 80.3442L42.43 81.0883C60.8856 91.7612 79.1249 97.6072 91.7023 97.6182C95.2489 97.6166 98.3549 97.1523 100.909 96.1587C103.459 95.1697 105.47 93.6244 106.693 91.4986C107.581 89.9575 108.001 88.2025 108 86.3247C107.996 83.2036 106.869 79.7391 104.837 76.0498C98.7275 65.0035 84.3687 51.8023 65.5686 40.9089C47.113 30.2365 28.8738 24.3901 16.2977 24.3794C12.7511 24.3808 9.64509 24.8453 7.09061 25.8387C4.54147 26.8293 2.53045 28.3729 1.30729 30.4988C0.417966 32.0397 -0.00133215 33.7962 3.17911e-06 35.6731C0.00400916 38.795 1.13105 42.2597 3.16342 45.948C9.27254 56.9941 23.6313 70.1964 42.43 81.0883L42.8587 80.3442Z" fill="#68CDD4"/>
<path d="M65.14 80.3442L64.7113 79.6011C46.4641 90.1719 28.3664 95.9097 16.2977 95.8992C12.9006 95.9003 9.99226 95.4463 7.71152 94.5579C5.42678 93.6647 3.78568 92.3636 2.79219 90.6389C2.06978 89.3833 1.71458 87.951 1.71458 86.3247C1.71057 83.6283 2.71608 80.4043 4.66299 76.8807C10.4917 66.2926 24.6822 53.1556 43.2873 42.3976C61.5346 31.8255 79.6323 26.0863 91.7023 26.0984C95.098 26.0971 98.0077 26.5509 100.288 27.4411C102.573 28.3327 104.214 29.634 105.209 31.3583C105.93 32.6141 106.284 34.0465 106.285 35.6731C106.289 38.3693 105.283 41.593 103.337 45.1166C97.5083 55.7045 83.3165 68.842 64.7113 79.6011L65.14 80.3442L65.5686 81.0883C78.102 73.8324 88.6618 65.5322 96.1182 57.5468C99.8465 53.552 102.8 49.6362 104.837 45.948C106.869 42.2597 107.996 38.7937 108 35.6731C108.001 33.7962 107.581 32.0397 106.693 30.4988C105.47 28.3729 103.459 26.8293 100.909 25.8387C98.3549 24.8453 95.2489 24.3808 91.7023 24.3794C79.1262 24.3901 60.8856 30.2365 42.43 40.9089C29.898 48.1647 19.3382 56.4649 11.8817 64.4508C8.15218 68.4456 5.19846 72.3614 3.16342 76.0498C1.13105 79.7376 0.00400916 83.2026 3.17912e-06 86.3247C-0.00133215 88.2014 0.417966 89.9575 1.30729 91.4986C2.53045 93.6244 4.54147 95.1697 7.09061 96.1587C9.64509 97.1523 12.7511 97.6166 16.2977 97.6182C28.8738 97.6072 47.113 91.7612 65.5686 81.0883L65.14 80.3442Z" fill="#68CDD4"/>
<path d="M76.2818 60.9987H75.4245C75.4258 77.5187 72.9368 92.4738 68.9522 103.227C66.9625 108.602 64.595 112.922 62.0285 115.847C59.454 118.781 56.7459 120.282 53.9992 120.281C51.2524 120.282 48.5457 118.781 45.9712 115.847C42.1174 111.458 38.731 103.932 36.3555 94.415C33.9719 84.898 32.5752 73.39 32.5752 60.9987C32.5738 44.4785 35.0629 29.5233 39.0475 18.7719C41.0371 13.3968 43.4047 9.07804 45.9712 6.15154C48.5457 3.21701 51.2524 1.71628 53.9992 1.71762C56.7459 1.71628 59.454 3.21701 62.0285 6.15154C65.8822 10.5399 69.2673 18.0664 71.6442 27.5822C74.0277 37.1007 75.4245 48.6085 75.4245 60.9987H76.2818H77.1377C77.1364 44.3031 74.6367 29.1887 70.5586 18.1735C68.5155 12.6659 66.0826 8.17839 63.3158 5.01762C60.5596 1.8662 57.4056 0.00133514 53.9992 0C50.5927 0.00133514 47.4387 1.8662 44.6826 5.01762C40.5391 9.75945 37.1206 17.484 34.693 27.1645C32.2707 36.8436 30.8619 48.4784 30.8619 60.9987C30.8633 77.6938 33.363 92.8096 37.4411 103.825C39.4842 109.333 41.9171 113.82 44.6826 116.981C47.4387 120.134 50.5927 121.999 53.9992 122C57.4056 121.999 60.5596 120.134 63.3158 116.981C67.4606 112.24 70.879 104.514 73.3066 94.8339C75.7289 85.1537 77.1377 73.5196 77.1377 60.9987H76.2818Z" fill="#68CDD4"/>
<path d="M62.1406 60.9989C62.1406 65.5062 58.4952 69.1611 53.9992 69.1611C49.5031 69.1611 45.8577 65.5062 45.8577 60.9989C45.8577 56.4911 49.5031 52.8378 53.9992 52.8378C58.4952 52.8378 62.1406 56.4911 62.1406 60.9989Z" fill="#6563B8"/>
<path d="M62.1389 60.9786H61.2817C61.2817 62.9988 60.4671 64.8181 59.1478 66.1416C57.8272 67.4658 56.0111 68.2811 53.9975 68.2811C51.9838 68.2811 50.1677 67.4658 48.8471 66.1416C47.5278 64.8181 46.7132 62.9988 46.7132 60.9786C46.7132 58.9595 47.5278 57.1385 48.8471 55.8151C50.1677 54.492 51.9838 53.6767 53.9975 53.6756C56.0111 53.6767 57.8272 54.492 59.1478 55.8151C60.4671 57.1385 61.2817 58.9595 61.2817 60.9786H62.1389H62.9949C62.9949 55.9954 58.9675 51.9577 53.9975 51.9577C49.0274 51.9577 45 55.9954 45 60.9786C45 65.9613 49.0274 69.9989 53.9975 70C58.9675 69.9989 62.9949 65.9613 62.9949 60.9786H62.1389Z" fill="#6563B8"/>
</svg>
