<svg width="130" height="138" viewBox="0 0 130 138" fill="none" xmlns="http://www.w3.org/2000/svg">
<path d="M94.861 78.0863C95.1717 78.7001 95.9232 78.9474 96.54 78.6383C97.9417 77.9363 98.5067 76.2358 97.8013 74.8399L95.807 70.8994L94.4778 68.2725L92.4847 64.3321C91.7781 62.9374 90.0692 62.3751 88.6676 63.0782C88.0507 63.3874 87.8022 64.1352 88.1129 64.7489C88.1785 64.8795 88.2142 65.0146 88.2314 65.1509L94.6067 77.7519C94.7068 77.847 94.7954 77.9558 94.861 78.0863Z" fill="#E6E6E5"/>
<path d="M92.6441 77.2444L87.468 67.0135L74.2244 73.1793L80.6778 83.347L89.9503 78.5944L89.9503 78.5944L89.9544 78.5923L92.6441 77.2444Z" fill="#161540" stroke="#E6E6E5"/>
<path d="M94.6066 77.752L88.2313 65.1509C88.29 65.6112 88.0863 66.0739 87.687 66.3384L93.3235 77.4794C93.7758 77.3191 94.2706 77.4302 94.6066 77.752Z" fill="#6563B8"/>
<path d="M57.9443 31.9214C59.0928 31.9214 60.0192 30.9955 60.0192 29.8598C60.0192 26.9216 57.6255 24.5367 54.6672 24.5367H45.5388H39.4527H30.3234C27.3651 24.5367 24.9719 26.9215 24.9719 29.8598C24.9719 30.9956 25.8984 31.9214 27.0463 31.9214C27.3835 31.9214 27.6961 31.9846 27.9814 32.0771H57.0094C57.2946 31.9846 57.6073 31.9214 57.9443 31.9214Z" fill="#E6E6E5" stroke="#E6E6E5"/>
<path d="M54.8699 35.1719H30.1213V69.0332H54.8699V35.1719Z" fill="#161540" stroke="#E6E6E5"/>
<path d="M57.0916 32.5773H27.8997C28.8051 32.8945 29.4704 33.6961 29.5899 34.6729H55.4015C55.5215 33.6961 56.1863 32.8945 57.0916 32.5773Z" fill="#6563B8"/>
<path d="M84.4512 93.4832L83.8827 93.5725C83.9414 93.9447 84.0047 94.3031 84.0508 94.657L84.442 97.6572L85.1797 94.7222C85.1889 94.6856 85.2199 94.5447 85.2199 94.326C85.2211 94.0604 85.1716 93.6767 84.9748 93.2462L83.2268 89.4146L83.8827 93.5725L84.4512 93.4832L83.9276 93.7202C84.0473 93.9825 84.0692 94.1955 84.0692 94.326L84.0623 94.4394L84.06 94.4566L84.2913 94.5012L84.0623 94.4451L84.06 94.4566L84.2913 94.5012L84.0623 94.4451L84.6215 94.5837L85.1912 94.5104C85.1405 94.1233 85.0761 93.7546 85.0197 93.3939L84.4512 93.4832L83.9276 93.7202L84.4512 93.4832Z" fill="#D1D8F0"/>
<path d="M37.1303 93.6803L37.1316 93.6812C37.3773 93.8669 37.6262 94.0396 37.8938 94.2255C37.9645 94.2745 38.0365 94.3245 38.11 94.3758C45.7508 99.6923 55.4355 101.53 64.1537 101.027C72.6573 100.535 79.9896 97.836 83.5612 94.2459C83.5479 94.1619 83.534 94.077 83.5198 93.99C83.5014 93.8773 83.4825 93.761 83.4633 93.6387C80.3504 73.9072 63.2075 58.8016 42.4956 58.8016C24.6596 58.8016 9.46177 70.002 3.59534 85.7156C11.6159 85.0265 25.967 85.2736 37.1303 93.6803Z" fill="#161540" stroke="#E6E6E5" stroke-width="2"/>
<path d="M84.6213 94.5834C77.2321 102.658 53.2783 106.149 37.5377 95.1961C37.1997 94.9602 36.859 94.7289 36.5286 94.4792C24.9125 85.7316 9.66606 86.0316 2.13124 86.8641C1.05146 90.1289 0.360538 93.57 0.110129 97.1325C0.0413129 98.1093 0 99.093 0 100.089C0 123.443 14.2988 138 42.4955 138C70.1808 138 84.9918 123.443 84.9918 100.089C84.9918 98.2215 84.8572 96.3859 84.6213 94.5834Z" fill="#68CDD4"/>
<path d="M52.8797 88.8737C52.8797 91.4949 50.7435 93.6191 48.109 93.6191C45.4743 93.6191 43.3391 91.4949 43.3391 88.8737C43.3391 86.2514 45.4743 84.126 48.109 84.126C50.7435 84.126 52.8797 86.2514 52.8797 88.8737Z" fill="#68CDCE"/>
<path d="M42.2786 74.5941C42.2786 76.5603 40.6769 78.1543 38.7013 78.1543C36.7247 78.1543 35.1235 76.5603 35.1235 74.5941C35.1235 72.6279 36.7247 71.035 38.7013 71.035C40.6769 71.035 42.2786 72.6279 42.2786 74.5941Z" fill="#68CDCE"/>
<path d="M50.0212 3.55992C50.0212 5.52611 48.4191 7.12012 46.4435 7.12012C44.4673 7.12012 42.8652 5.52611 42.8652 3.55992C42.8652 1.59258 44.4673 -0.000310898 46.4435 -0.000310898C48.4191 -0.000310898 50.0212 1.59258 50.0212 3.55992Z" fill="#68CDCE"/>
<path d="M46.5931 51.3661C46.5931 52.62 45.5723 53.6357 44.3126 53.6357C43.0536 53.6357 42.0327 52.62 42.0327 51.3661C42.0327 50.1133 43.0536 49.0976 44.3126 49.0976C45.5723 49.0976 46.5931 50.1133 46.5931 51.3661Z" fill="#68CDCE"/>
<path d="M59.1347 73.9629C59.1347 75.2157 58.1143 76.2314 56.8543 76.2314C55.5951 76.2314 54.5747 75.2157 54.5747 73.9629C54.5747 72.709 55.5951 71.6933 56.8543 71.6933C58.1143 71.6933 59.1347 72.709 59.1347 73.9629Z" fill="#68CDCE"/>
<path d="M43.0902 13.2603H42.5148C42.5135 14.1971 41.752 14.9551 40.8107 14.9574C39.869 14.9551 39.1079 14.1971 39.1061 13.2603C39.1079 12.3236 39.869 11.5655 40.8107 11.5644C41.752 11.5655 42.5135 12.3236 42.5148 13.2603H43.0902H43.6656C43.6656 11.6915 42.3881 10.4193 40.8107 10.4193C39.2329 10.4193 37.9553 11.6915 37.9553 13.2603C37.9553 14.8303 39.2329 16.1025 40.8107 16.1025C42.3881 16.1014 43.6656 14.8303 43.6656 13.2603H43.0902Z" fill="#68CDCE"/>
<path d="M115.615 45.1025H115.04C115.04 46.7893 114.354 48.3124 113.242 49.4197C112.131 50.5248 110.6 51.2072 108.904 51.2084C107.207 51.2072 105.676 50.5248 104.564 49.4197C103.453 48.3124 102.767 46.7893 102.767 45.1025C102.767 43.4135 103.453 41.8904 104.564 40.7842C105.676 39.678 107.207 38.9956 108.904 38.9956C110.6 38.9956 112.131 39.678 113.242 40.7842C114.354 41.8904 115.04 43.4135 115.04 45.1025H115.615H116.191C116.191 41.0969 112.928 37.8504 108.904 37.8504C104.879 37.8504 101.616 41.0969 101.616 45.1025C101.616 49.1071 104.879 52.3524 108.904 52.3535C112.928 52.3524 116.191 49.1071 116.191 45.1025H115.615Z" fill="#68CDCE"/>
<path d="M129.425 36.7696H128.849C128.846 38.4197 127.505 39.7538 125.847 39.7572C124.188 39.7538 122.847 38.4197 122.844 36.7696C122.847 35.1194 124.188 33.7842 125.847 33.7819C127.505 33.7842 128.846 35.1194 128.849 36.7696H129.425H130C130 34.4862 128.14 32.6368 125.847 32.6368C123.553 32.6368 121.694 34.4862 121.694 36.7696C121.694 39.0518 123.553 40.9012 125.847 40.9023C128.14 40.9012 130 39.0518 130 36.7696H129.425Z" fill="#68CDCE"/>
<path d="M108.685 61.3563C108.685 62.6103 107.665 63.626 106.406 63.626C105.146 63.626 104.125 62.6103 104.125 61.3563C104.125 60.1036 105.146 59.0878 106.406 59.0878C107.665 59.0878 108.685 60.1036 108.685 61.3563Z" fill="#68CDCE"/>
<path d="M78.1173 110.456L78.1069 110.495C77.9838 110.973 76.6823 115.615 72.4286 120.299C68.1684 124.98 60.9918 129.745 48.887 130.543C48.4281 130.573 48.0807 130.968 48.1107 131.423C48.1408 131.88 48.5373 132.226 48.9963 132.196C61.9061 131.363 69.6528 126.051 74.0908 120.93C78.5362 115.81 79.7157 110.922 79.7376 110.842C79.8446 110.397 79.5684 109.949 79.1208 109.842C78.6731 109.736 78.2243 110.011 78.1173 110.456Z" fill="#D1D8F0"/>
<path d="M16.8748 100.842C17.986 100.842 18.8873 101.739 18.8873 102.845C18.8873 103.951 17.986 104.848 16.8748 104.848C15.7636 104.848 14.8623 103.951 14.8623 102.845C14.8623 101.739 15.7636 100.842 16.8748 100.842Z" fill="#A6E1E4"/>
<path d="M32.2832 114.793C34.2126 114.793 35.7761 116.349 35.7761 118.27C35.7761 120.188 34.2126 121.744 32.2832 121.744C30.3544 121.744 28.7905 120.188 28.7905 118.27C28.7905 116.349 30.3544 114.793 32.2832 114.793Z" fill="#A6E1E4"/>
</svg>
