<svg width="179" height="211" viewBox="0 0 179 211" fill="none" xmlns="http://www.w3.org/2000/svg">
<path d="M134.58 177.704L141.199 196.193L121.15 198.138L121.04 196.977L139.612 195.174L133.502 178.104L134.58 177.704Z" fill="#262B52"/>
<path d="M133.171 182.682C135.73 183.533 138.483 182.11 139.319 179.505C140.155 176.899 138.759 174.098 136.199 173.247C133.639 172.395 130.885 173.817 130.049 176.423C129.213 179.028 130.61 181.832 133.171 182.682Z" fill="#6563B8"/>
<path d="M134.889 181.483C136.167 181.24 137.277 180.315 137.709 178.969C137.769 178.781 137.968 178.679 138.153 178.74C138.338 178.802 138.439 179.004 138.378 179.192C137.864 180.796 136.54 181.9 135.018 182.187C134.827 182.224 134.643 182.095 134.608 181.901C134.572 181.706 134.698 181.519 134.889 181.483Z" fill="#D1D8F0"/>
<path d="M119.958 203.168C122.969 204.17 126.209 202.496 127.192 199.431C128.176 196.365 126.531 193.068 123.52 192.067C120.509 191.065 117.269 192.738 116.285 195.805C115.302 198.87 116.945 202.167 119.958 203.168Z" fill="#E6E6E5"/>
<path d="M122.073 201.846C123.598 201.556 124.923 200.453 125.438 198.847C125.499 198.659 125.697 198.555 125.883 198.617C126.067 198.678 126.168 198.881 126.107 199.069C125.51 200.933 123.97 202.217 122.202 202.552C122.01 202.588 121.826 202.46 121.791 202.265C121.756 202.07 121.881 201.882 122.073 201.846Z" fill="#6563B8"/>
<path d="M153.113 210.811C155.07 211.462 157.175 210.375 157.815 208.382C158.454 206.39 157.386 204.247 155.429 203.596C153.47 202.945 151.364 204.032 150.726 206.025C150.086 208.019 151.155 210.16 153.113 210.811Z" fill="#E6E6E5"/>
<path d="M154.304 209.775C155.252 209.595 156.076 208.908 156.396 207.91C156.457 207.721 156.656 207.619 156.84 207.68C157.026 207.742 157.126 207.945 157.066 208.132C156.662 209.388 155.625 210.256 154.433 210.48C154.242 210.516 154.057 210.388 154.022 210.193C153.987 209.998 154.113 209.812 154.304 209.775Z" fill="#6563B8"/>
<path d="M137.412 201.907C141.102 203.133 145.069 201.083 146.275 197.328C147.479 193.573 145.466 189.533 141.776 188.307C138.086 187.081 134.118 189.131 132.914 192.886C131.709 196.641 133.723 200.68 137.412 201.907Z" fill="#68CDD4"/>
<path d="M140.122 200.401C142.018 200.042 143.665 198.669 144.304 196.673C144.365 196.484 144.563 196.382 144.748 196.443C144.934 196.505 145.034 196.708 144.974 196.896C144.251 199.149 142.39 200.701 140.251 201.105C140.059 201.142 139.875 201.013 139.84 200.819C139.805 200.624 139.93 200.437 140.122 200.401Z" fill="#D1D8F0"/>
<path d="M15 166.501C15 170.642 11.6427 174.001 7.50015 174.001C3.35789 174.001 0 170.642 0 166.501C0 162.358 3.35789 159 7.50015 159C11.6427 159 15 162.358 15 166.501Z" fill="#E6E6E5"/>
<path d="M12.3104 168.141C11.3797 169.844 9.57649 170.998 7.50023 170.998C7.10907 170.998 6.79163 171.315 6.79163 171.706C6.79163 172.098 7.10907 172.415 7.50023 172.415C10.1117 172.414 12.3865 170.961 13.5543 168.82C13.7413 168.476 13.615 168.047 13.2717 167.859C12.9283 167.672 12.4977 167.798 12.3104 168.141Z" fill="#6563B8"/>
<path d="M178.999 9.50061C178.999 14.7462 174.746 19 169.5 19C164.253 19 160 14.7462 160 9.50061C160 4.25375 164.253 0 169.5 0C174.746 0 178.999 4.25375 178.999 9.50061Z" fill="#E6E6E5"/>
<path d="M175.592 11.5785C174.413 13.7345 172.129 15.1962 169.5 15.1962C169.004 15.1962 168.602 15.5979 168.602 16.0938C168.602 16.5898 169.004 16.9915 169.5 16.9915C172.807 16.9902 175.689 15.1491 177.168 12.4377C177.404 12.0025 177.244 11.4582 176.81 11.2202C176.375 10.9834 175.829 11.1433 175.592 11.5785Z" fill="#6563B8"/>
<path d="M88.0951 149L103.419 144.425L100.245 133.843L84.9202 138.418L88.0951 149Z" fill="#262B52"/>
<path d="M71.5113 93.7405L86.8356 89.1653L85.7769 85.6385L70.4525 90.2137L71.5113 93.7405Z" fill="#262B52"/>
<path d="M80.6852 124.309L96.0096 119.734L87.7176 92.1051L72.3945 96.6803L80.6852 124.309Z" fill="#262B52"/>
<path d="M84.9201 138.418L100.244 133.843L96.0095 119.734L80.6851 124.309L84.9201 138.418Z" fill="#6563B8"/>
<path d="M72.3947 96.6803L87.7178 92.1051L86.8357 89.1653L71.5114 93.7404L72.3947 96.6803Z" fill="#6563B8"/>
<path d="M66.9241 78.457L70.4524 90.2137L85.7767 85.6386L82.2485 73.8805L66.9241 78.457Z" fill="#68CDD4"/>
<path d="M102.31 29.4586C108.643 50.5622 96.626 72.7915 75.469 79.1072C54.3095 85.4255 32.0239 73.4393 25.6905 52.3357C19.3559 31.2321 31.3744 9.00272 52.5327 2.68571C73.6896 -3.6313 95.9765 8.35495 102.31 29.4586Z" fill="#68CDD4"/>
<path d="M99.3624 30.3383C105.209 49.818 94.117 70.3372 74.5857 76.1686C55.0555 81.9988 34.4845 70.9355 28.6366 51.4559C22.7901 31.9762 33.8845 11.4557 53.4147 5.62552C72.9448 -0.205956 93.5171 10.8586 99.3624 30.3383Z" fill="#4AC2C1"/>
<path d="M96.4163 31.2182C101.776 49.0752 91.6069 67.8842 73.7037 73.2302C55.8005 78.5748 36.9427 68.4318 31.5842 50.5749C26.2257 32.7191 36.3936 13.9101 54.2956 8.56414C72.1988 3.21947 91.0566 13.3612 96.4163 31.2182Z" fill="#3D4995"/>
<path d="M89.3545 49.7851C86.7591 58.0518 80.2338 64.9241 71.2886 67.5952C70.7776 67.7473 70.4866 68.2848 70.6404 68.7944C70.7929 69.3028 71.3305 69.5931 71.8414 69.4397C81.4222 66.5797 88.4215 59.2118 91.1974 50.3593C91.3563 49.8523 91.0728 49.3122 90.5644 49.1538C90.056 48.994 89.5133 49.2767 89.3545 49.7851Z" fill="#D1D8F0"/>
</svg>
