<svg width="170" height="253" viewBox="0 0 170 253" fill="none" xmlns="http://www.w3.org/2000/svg">
<path d="M37.365 15.9773L58.1176 32.0392L69.0871 7.18283L67.652 6.56635L57.4911 29.591L38.331 14.7621L37.365 15.9773Z" fill="#262B52"/>
<path d="M44.3046 16.2178C44.3046 19.8433 41.3261 22.7822 37.6524 22.7822C33.9788 22.7822 31 19.8433 31 16.2178C31 12.5923 33.9788 9.65336 37.6524 9.65336C41.3261 9.65336 44.3046 12.5923 44.3046 16.2178Z" fill="#6563B8"/>
<path d="M42.0485 17.9251C41.1985 19.4607 39.5496 20.5017 37.6525 20.5011C37.387 20.5011 37.172 20.7133 37.172 20.9754C37.172 21.2374 37.387 21.4497 37.6525 21.4497C39.9126 21.4497 41.8813 20.2082 42.8921 18.3798C43.0192 18.1498 42.9333 17.8616 42.7005 17.7364C42.4676 17.6106 42.1756 17.6951 42.0485 17.9251Z" fill="#D1D8F0"/>
<path d="M76 7.72275C76 11.9877 72.496 15.4454 68.1741 15.4454C63.8517 15.4454 60.3482 11.9877 60.3482 7.72275C60.3482 3.45784 63.8517 3.05176e-05 68.1741 3.05176e-05C72.496 3.05176e-05 76 3.45784 76 7.72275Z" fill="#E6E6E5"/>
<path d="M73.42 9.88727C72.4056 11.719 70.4379 12.9618 68.1739 12.9618C67.9086 12.9618 67.6934 13.1741 67.6934 13.4361C67.6934 13.6975 67.9086 13.9098 68.1739 13.9098C70.801 13.9098 73.0887 12.4672 74.2632 10.3413C74.3906 10.1113 74.305 9.82375 74.072 9.69796C73.8389 9.57283 73.5468 9.65732 73.42 9.88727Z" fill="#6563B8"/>
<path d="M67 29.5392C67 34.7646 62.7081 39 57.413 39C52.1185 39 47.8263 34.7646 47.8263 29.5392C47.8263 24.3146 52.1185 20.0792 57.413 20.0792C62.7081 20.0792 67 24.3146 67 29.5392Z" fill="#68CDD4"/>
<path d="M63.9347 32.389C62.6744 34.6669 60.2276 36.2111 57.413 36.2111C57.1478 36.2111 56.9325 36.4233 56.9325 36.6854C56.9325 36.9468 57.1478 37.1591 57.413 37.1591C60.5906 37.1591 63.3569 35.4144 64.7781 32.8437C64.9054 32.6137 64.8196 32.3255 64.5867 32.2004C64.3538 32.0746 64.0618 32.1597 63.9347 32.389Z" fill="#D1D8F0"/>
<path d="M95.2892 230.545C95.2892 226.717 98.3917 223.615 102.217 223.615C106.043 223.615 109.145 226.717 109.145 230.545C109.145 231.215 109.045 231.86 108.867 232.472V238.467C127.537 237.275 143.493 226.147 151.524 210.308H136.854C129.977 217.362 120.377 221.747 109.75 221.747C88.837 221.747 71.8823 204.787 71.8823 183.864C71.8823 170.489 78.8178 158.742 89.2804 152.001C87.3229 149.61 86.1446 146.553 86.1446 143.22C86.1446 141.743 86.3807 140.322 86.8097 138.987C67.6082 146.486 54 165.158 54 187.021C54 212.085 71.8757 232.962 95.5663 237.611V232.472C95.39 231.86 95.2892 231.215 95.2892 230.545Z" fill="#262B52"/>
<path d="M123.238 180.065L125.436 183.916L143.727 173.473L141.53 169.621L123.238 180.065Z" fill="#262B52"/>
<path d="M126.608 178.14L77.3679 92.6218L88.92 86.025L138.16 171.545L126.608 178.14Z" fill="#6868BB"/>
<path d="M119.392 173.324L121.59 177.175L139.882 166.731L137.683 162.88L119.392 173.324Z" fill="#68CDD4"/>
<path d="M121.04 176.213L84.4387 112.843L102.729 102.4L139.331 165.768L121.04 176.213Z" fill="#262B52"/>
<path d="M74.3442 91.7957L76.5422 95.6468L91.9439 86.8522L89.747 83L74.3442 91.7957Z" fill="#262B52"/>
<path d="M100 151.537C97.7975 151.537 95.8001 150.673 94.3115 149.274C92.6998 147.757 91.6867 145.609 91.6867 143.22C91.6867 140.468 93.029 138.034 95.0885 136.521C96.4663 135.508 98.1611 134.904 100 134.904C101.108 134.904 102.165 135.125 103.131 135.519C106.17 136.757 108.313 139.736 108.313 143.22C108.313 144.208 108.133 145.151 107.817 146.03C106.664 149.238 103.605 151.537 100 151.537ZM111.713 135.838C109.26 131.949 104.937 129.359 100 129.359C93.8249 129.359 88.5986 133.403 86.8096 138.986C86.3806 140.322 86.1445 141.743 86.1445 143.22C86.1445 146.552 87.3228 149.61 89.2803 152C91.8219 155.101 95.6793 157.081 100 157.081C106.639 157.081 112.182 152.407 113.534 146.17C113.741 145.218 113.855 144.234 113.855 143.22C113.855 140.503 113.063 137.977 111.713 135.838Z" fill="#68CDCC"/>
<path d="M103.132 135.519C102.165 135.125 101.109 134.904 100 134.904C98.1614 134.904 96.4666 135.508 95.0888 136.521C93.0293 138.034 91.687 140.468 91.687 143.22C91.687 145.609 92.7001 147.757 94.3118 149.274C95.8004 150.673 97.7978 151.537 100 151.537C103.605 151.537 106.664 149.238 107.817 146.03C108.133 145.151 108.314 144.208 108.314 143.22C108.314 139.736 106.17 136.757 103.132 135.519Z" fill="#6868BB"/>
<path d="M108.868 242.466V238.467C108.868 238.467 109.145 231.215 109.145 230.545C109.145 226.717 106.043 223.614 102.217 223.614C98.3918 223.614 95.2893 226.717 95.2893 230.545C95.2893 231.215 95.5664 237.611 95.5664 237.611V242.466" fill="#6868BB"/>
<path d="M108.868 241.911V242.466H95.5664V241.911H56.7712V253H158.747V241.911H108.868Z" fill="#5D63B8"/>
<path d="M161.795 202.546H118.012V210.308H169V202.546H161.795Z" fill="#6868BB"/>
<path d="M155.876 198.11H125.217V202.546H161.795V198.11H155.876Z" fill="#68CDD1"/>
<path d="M102.217 226.165C104.328 226.165 106.041 227.878 106.041 229.991C106.041 232.103 104.328 233.816 102.217 233.816C100.105 233.816 98.3928 232.103 98.3928 229.991C98.3928 227.878 100.105 226.165 102.217 226.165Z" fill="#68CDD1"/>
<path d="M170 54.0013C170 58.9712 165.971 63.0013 161 63.0013C156.029 63.0013 152 58.9712 152 54.0013C152 49.0302 156.029 45.0001 161 45.0001C165.971 45.0001 170 49.0302 170 54.0013Z" fill="#E6E6E5"/>
<path d="M166.772 55.97C165.656 58.0126 163.492 59.3975 161 59.3975C160.531 59.3975 160.15 59.7781 160.15 60.248C160.15 60.7178 160.531 61.0984 161 61.0984C164.134 61.0972 166.864 59.3529 168.265 56.784C168.489 56.3717 168.338 55.856 167.926 55.6305C167.514 55.4061 166.997 55.5577 166.772 55.97Z" fill="#6563B8"/>
<path d="M14 138.001C14 141.866 10.8665 145.001 7.00014 145.001C3.13404 145.001 0 141.866 0 138.001C0 134.135 3.13404 131 7.00014 131C10.8665 131 14 134.135 14 138.001Z" fill="#E6E6E5"/>
<path d="M11.4897 139.532C10.6211 141.121 8.93808 142.198 7.00023 142.198C6.63515 142.198 6.33887 142.494 6.33887 142.859C6.33887 143.225 6.63515 143.521 7.00023 143.521C9.43764 143.52 11.5608 142.163 12.6507 140.165C12.8252 139.845 12.7073 139.443 12.3869 139.268C12.0664 139.094 11.6645 139.211 11.4897 139.532Z" fill="#6563B8"/>
</svg>
