<svg width="218" height="152" viewBox="0 0 218 152" fill="none" xmlns="http://www.w3.org/2000/svg">
<path d="M43.408 47.192C42.7467 47.192 42.1387 47.0693 41.584 46.824C41.0293 46.5787 40.544 46.2267 40.128 45.768C39.7227 45.2987 39.4027 44.728 39.168 44.056C38.944 43.3733 38.832 42.6053 38.832 41.752C38.832 40.9093 38.9493 40.152 39.184 39.48C39.4187 38.808 39.744 38.2373 40.16 37.768C40.576 37.2987 41.0667 36.9413 41.632 36.696C42.1973 36.44 42.816 36.312 43.488 36.312C44.128 36.312 44.688 36.4453 45.168 36.712C45.6587 36.968 46.0587 37.2667 46.368 37.608L45.648 38.472C45.3707 38.1733 45.056 37.9333 44.704 37.752C44.352 37.5707 43.952 37.48 43.504 37.48C43.0027 37.48 42.5493 37.5813 42.144 37.784C41.7387 37.976 41.392 38.2587 41.104 38.632C40.816 38.9947 40.592 39.4373 40.432 39.96C40.2827 40.4827 40.208 41.0693 40.208 41.72C40.208 42.3813 40.2827 42.9787 40.432 43.512C40.592 44.0347 40.8107 44.4827 41.088 44.856C41.3653 45.2293 41.7013 45.5173 42.096 45.72C42.5013 45.9227 42.9547 46.024 43.456 46.024C43.968 46.024 44.416 45.9227 44.8 45.72C45.184 45.5067 45.5467 45.2133 45.888 44.84L46.624 45.672C46.208 46.152 45.7387 46.5253 45.216 46.792C44.6933 47.0587 44.0907 47.192 43.408 47.192Z" fill="#111032"/>
<path d="M39.44 73V62.504H40.768V66.904H45.648V62.504H46.992V73H45.648V68.056H40.768V73H39.44Z" fill="#111032"/>
<path d="M43.408 21.192C42.7467 21.192 42.1387 21.0693 41.584 20.824C41.0293 20.5787 40.544 20.2267 40.128 19.768C39.7227 19.2987 39.4027 18.728 39.168 18.056C38.944 17.3733 38.832 16.6053 38.832 15.752C38.832 14.9093 38.9493 14.152 39.184 13.48C39.4187 12.808 39.744 12.2373 40.16 11.768C40.576 11.2987 41.0667 10.9413 41.632 10.696C42.1973 10.44 42.816 10.312 43.488 10.312C44.128 10.312 44.688 10.4453 45.168 10.712C45.6587 10.968 46.0587 11.2667 46.368 11.608L45.648 12.472C45.3707 12.1733 45.056 11.9333 44.704 11.752C44.352 11.5707 43.952 11.48 43.504 11.48C43.0027 11.48 42.5493 11.5813 42.144 11.784C41.7387 11.976 41.392 12.2587 41.104 12.632C40.816 12.9947 40.592 13.4373 40.432 13.96C40.2827 14.4827 40.208 15.0693 40.208 15.72C40.208 16.3813 40.2827 16.9787 40.432 17.512C40.592 18.0347 40.8107 18.4827 41.088 18.856C41.3653 19.2293 41.7013 19.5173 42.096 19.72C42.5013 19.9227 42.9547 20.024 43.456 20.024C43.968 20.024 44.416 19.9227 44.8 19.72C45.184 19.5067 45.5467 19.2133 45.888 18.84L46.624 19.672C46.208 20.152 45.7387 20.5253 45.216 20.792C44.6933 21.0587 44.0907 21.192 43.408 21.192ZM48.5806 21V10.504H49.9086V14.904H54.7886V10.504H56.1326V21H54.7886V16.056H49.9086V21H48.5806ZM58.4101 23.816V23.224C58.8901 22.7867 59.3168 22.392 59.6901 22.04C60.0635 21.6987 60.3728 21.384 60.6181 21.096C60.8635 20.808 61.0501 20.5413 61.1781 20.296C61.3061 20.04 61.3701 19.7947 61.3701 19.56C61.3701 19.1547 61.2635 18.8347 61.0501 18.6C60.8368 18.3653 60.5435 18.248 60.1701 18.248C59.9035 18.248 59.6581 18.3387 59.4341 18.52C59.2101 18.6907 59.0075 18.904 58.8261 19.16L58.2181 18.6C58.4635 18.2373 58.7621 17.944 59.1141 17.72C59.4768 17.496 59.8715 17.384 60.2981 17.384C60.9275 17.384 61.4288 17.5547 61.8021 17.896C62.1861 18.2373 62.3781 18.7387 62.3781 19.4C62.3781 19.6987 62.3195 19.9867 62.2021 20.264C62.0848 20.5413 61.9195 20.8187 61.7061 21.096C61.5035 21.384 61.2581 21.6773 60.9701 21.976C60.6928 22.2747 60.3888 22.5947 60.0581 22.936H62.6981V23.816H58.4101ZM68.7651 21.192C68.1038 21.192 67.4958 21.064 66.9411 20.808C66.3971 20.552 65.9278 20.1893 65.5331 19.72C65.1385 19.24 64.8291 18.664 64.6051 17.992C64.3918 17.3093 64.2851 16.5467 64.2851 15.704C64.2851 14.8613 64.3918 14.1093 64.6051 13.448C64.8291 12.776 65.1385 12.2107 65.5331 11.752C65.9278 11.2827 66.3971 10.9253 66.9411 10.68C67.4958 10.4347 68.1038 10.312 68.7651 10.312C69.4265 10.312 70.0291 10.44 70.5731 10.696C71.1278 10.9413 71.6025 11.2987 71.9971 11.768C72.4025 12.2267 72.7118 12.792 72.9251 13.464C73.1491 14.1253 73.2611 14.872 73.2611 15.704C73.2611 16.5467 73.1491 17.3093 72.9251 17.992C72.7118 18.664 72.4025 19.24 71.9971 19.72C71.6025 20.1893 71.1278 20.552 70.5731 20.808C70.0291 21.064 69.4265 21.192 68.7651 21.192ZM68.7651 20.024C69.2345 20.024 69.6558 19.9227 70.0291 19.72C70.4131 19.5173 70.7385 19.2293 71.0051 18.856C71.2825 18.472 71.4958 18.0187 71.6451 17.496C71.7945 16.9627 71.8691 16.3653 71.8691 15.704C71.8691 15.0533 71.7945 14.4667 71.6451 13.944C71.4958 13.4213 71.2825 12.9787 71.0051 12.616C70.7385 12.2533 70.4131 11.976 70.0291 11.784C69.6558 11.5813 69.2345 11.48 68.7651 11.48C68.2958 11.48 67.8691 11.5813 67.4851 11.784C67.1118 11.976 66.7865 12.2533 66.5091 12.616C66.2425 12.9787 66.0345 13.4213 65.8851 13.944C65.7358 14.4667 65.6611 15.0533 65.6611 15.704C65.6611 16.3653 65.7358 16.9627 65.8851 17.496C66.0345 18.0187 66.2425 18.472 66.5091 18.856C66.7865 19.2293 67.1118 19.5173 67.4851 19.72C67.8691 19.9227 68.2958 20.024 68.7651 20.024ZM75.5181 21V10.504H76.8461V14.904H81.7261V10.504H83.0701V21H81.7261V16.056H76.8461V21H75.5181Z" fill="#111032"/>
<path d="M182.408 82.192C181.747 82.192 181.139 82.0693 180.584 81.824C180.029 81.5787 179.544 81.2267 179.128 80.768C178.723 80.2987 178.403 79.728 178.168 79.056C177.944 78.3733 177.832 77.6053 177.832 76.752C177.832 75.9093 177.949 75.152 178.184 74.48C178.419 73.808 178.744 73.2373 179.16 72.768C179.576 72.2987 180.067 71.9413 180.632 71.696C181.197 71.44 181.816 71.312 182.488 71.312C183.128 71.312 183.688 71.4453 184.168 71.712C184.659 71.968 185.059 72.2667 185.368 72.608L184.648 73.472C184.371 73.1733 184.056 72.9333 183.704 72.752C183.352 72.5707 182.952 72.48 182.504 72.48C182.003 72.48 181.549 72.5813 181.144 72.784C180.739 72.976 180.392 73.2587 180.104 73.632C179.816 73.9947 179.592 74.4373 179.432 74.96C179.283 75.4827 179.208 76.0693 179.208 76.72C179.208 77.3813 179.283 77.9787 179.432 78.512C179.592 79.0347 179.811 79.4827 180.088 79.856C180.365 80.2293 180.701 80.5173 181.096 80.72C181.501 80.9227 181.955 81.024 182.456 81.024C182.968 81.024 183.416 80.9227 183.8 80.72C184.184 80.5067 184.547 80.2133 184.888 79.84L185.624 80.672C185.208 81.152 184.739 81.5253 184.216 81.792C183.693 82.0587 183.091 82.192 182.408 82.192Z" fill="#111032"/>
<path d="M5.408 82.192C4.74667 82.192 4.13867 82.0693 3.584 81.824C3.02933 81.5787 2.544 81.2267 2.128 80.768C1.72267 80.2987 1.40267 79.728 1.168 79.056C0.944 78.3733 0.832 77.6053 0.832 76.752C0.832 75.9093 0.949333 75.152 1.184 74.48C1.41867 73.808 1.744 73.2373 2.16 72.768C2.576 72.2987 3.06667 71.9413 3.632 71.696C4.19733 71.44 4.816 71.312 5.488 71.312C6.128 71.312 6.688 71.4453 7.168 71.712C7.65867 71.968 8.05867 72.2667 8.368 72.608L7.648 73.472C7.37067 73.1733 7.056 72.9333 6.704 72.752C6.352 72.5707 5.952 72.48 5.504 72.48C5.00267 72.48 4.54933 72.5813 4.144 72.784C3.73867 72.976 3.392 73.2587 3.104 73.632C2.816 73.9947 2.592 74.4373 2.432 74.96C2.28267 75.4827 2.208 76.0693 2.208 76.72C2.208 77.3813 2.28267 77.9787 2.432 78.512C2.592 79.0347 2.81067 79.4827 3.088 79.856C3.36533 80.2293 3.70133 80.5173 4.096 80.72C4.50133 80.9227 4.95467 81.024 5.456 81.024C5.968 81.024 6.416 80.9227 6.8 80.72C7.184 80.5067 7.54667 80.2133 7.888 79.84L8.624 80.672C8.208 81.152 7.73867 81.5253 7.216 81.792C6.69333 82.0587 6.09067 82.192 5.408 82.192Z" fill="#111032"/>
<path d="M1.44 56V45.504H2.768V49.904H7.648V45.504H8.992V56H7.648V51.056H2.768V56H1.44Z" fill="#111032"/>
<path d="M5.312 108.192C4.65067 108.192 4.04267 108.064 3.488 107.808C2.944 107.552 2.47467 107.189 2.08 106.72C1.68533 106.24 1.376 105.664 1.152 104.992C0.938667 104.309 0.832 103.547 0.832 102.704C0.832 101.861 0.938667 101.109 1.152 100.448C1.376 99.776 1.68533 99.2107 2.08 98.752C2.47467 98.2827 2.944 97.9253 3.488 97.68C4.04267 97.4347 4.65067 97.312 5.312 97.312C5.97333 97.312 6.576 97.44 7.12 97.696C7.67467 97.9413 8.14933 98.2987 8.544 98.768C8.94933 99.2267 9.25867 99.792 9.472 100.464C9.696 101.125 9.808 101.872 9.808 102.704C9.808 103.547 9.696 104.309 9.472 104.992C9.25867 105.664 8.94933 106.24 8.544 106.72C8.14933 107.189 7.67467 107.552 7.12 107.808C6.576 108.064 5.97333 108.192 5.312 108.192ZM5.312 107.024C5.78133 107.024 6.20267 106.923 6.576 106.72C6.96 106.517 7.28533 106.229 7.552 105.856C7.82933 105.472 8.04267 105.019 8.192 104.496C8.34133 103.963 8.416 103.365 8.416 102.704C8.416 102.053 8.34133 101.467 8.192 100.944C8.04267 100.421 7.82933 99.9787 7.552 99.616C7.28533 99.2533 6.96 98.976 6.576 98.784C6.20267 98.5813 5.78133 98.48 5.312 98.48C4.84267 98.48 4.416 98.5813 4.032 98.784C3.65867 98.976 3.33333 99.2533 3.056 99.616C2.78933 99.9787 2.58133 100.421 2.432 100.944C2.28267 101.467 2.208 102.053 2.208 102.704C2.208 103.365 2.28267 103.963 2.432 104.496C2.58133 105.019 2.78933 105.472 3.056 105.856C3.33333 106.229 3.65867 106.517 4.032 106.72C4.416 106.923 4.84267 107.024 5.312 107.024ZM12.065 108V97.504H13.393V101.904H18.273V97.504H19.617V108H18.273V103.056H13.393V108H12.065Z" fill="#111032"/>
<path d="M144.408 117.192C143.747 117.192 143.139 117.069 142.584 116.824C142.029 116.579 141.544 116.227 141.128 115.768C140.723 115.299 140.403 114.728 140.168 114.056C139.944 113.373 139.832 112.605 139.832 111.752C139.832 110.909 139.949 110.152 140.184 109.48C140.419 108.808 140.744 108.237 141.16 107.768C141.576 107.299 142.067 106.941 142.632 106.696C143.197 106.44 143.816 106.312 144.488 106.312C145.128 106.312 145.688 106.445 146.168 106.712C146.659 106.968 147.059 107.267 147.368 107.608L146.648 108.472C146.371 108.173 146.056 107.933 145.704 107.752C145.352 107.571 144.952 107.48 144.504 107.48C144.003 107.48 143.549 107.581 143.144 107.784C142.739 107.976 142.392 108.259 142.104 108.632C141.816 108.995 141.592 109.437 141.432 109.96C141.283 110.483 141.208 111.069 141.208 111.72C141.208 112.381 141.283 112.979 141.432 113.512C141.592 114.035 141.811 114.483 142.088 114.856C142.365 115.229 142.701 115.517 143.096 115.72C143.501 115.923 143.955 116.024 144.456 116.024C144.968 116.024 145.416 115.923 145.8 115.72C146.184 115.507 146.547 115.213 146.888 114.84L147.624 115.672C147.208 116.152 146.739 116.525 146.216 116.792C145.693 117.059 145.091 117.192 144.408 117.192Z" fill="#111032"/>
<path d="M139.44 91V80.504H140.768V84.904H145.648V80.504H146.992V91H145.648V86.056H140.768V91H139.44Z" fill="#111032"/>
<path d="M197.44 56V45.504H198.768V49.904H203.648V45.504H204.992V56H203.648V51.056H198.768V56H197.44Z" fill="#111032"/>
<path d="M201.312 108.192C200.651 108.192 200.043 108.064 199.488 107.808C198.944 107.552 198.475 107.189 198.08 106.72C197.685 106.24 197.376 105.664 197.152 104.992C196.939 104.309 196.832 103.547 196.832 102.704C196.832 101.861 196.939 101.109 197.152 100.448C197.376 99.776 197.685 99.2107 198.08 98.752C198.475 98.2827 198.944 97.9253 199.488 97.68C200.043 97.4347 200.651 97.312 201.312 97.312C201.973 97.312 202.576 97.44 203.12 97.696C203.675 97.9413 204.149 98.2987 204.544 98.768C204.949 99.2267 205.259 99.792 205.472 100.464C205.696 101.125 205.808 101.872 205.808 102.704C205.808 103.547 205.696 104.309 205.472 104.992C205.259 105.664 204.949 106.24 204.544 106.72C204.149 107.189 203.675 107.552 203.12 107.808C202.576 108.064 201.973 108.192 201.312 108.192ZM201.312 107.024C201.781 107.024 202.203 106.923 202.576 106.72C202.96 106.517 203.285 106.229 203.552 105.856C203.829 105.472 204.043 105.019 204.192 104.496C204.341 103.963 204.416 103.365 204.416 102.704C204.416 102.053 204.341 101.467 204.192 100.944C204.043 100.421 203.829 99.9787 203.552 99.616C203.285 99.2533 202.96 98.976 202.576 98.784C202.203 98.5813 201.781 98.48 201.312 98.48C200.843 98.48 200.416 98.5813 200.032 98.784C199.659 98.976 199.333 99.2533 199.056 99.616C198.789 99.9787 198.581 100.421 198.432 100.944C198.283 101.467 198.208 102.053 198.208 102.704C198.208 103.365 198.283 103.963 198.432 104.496C198.581 105.019 198.789 105.472 199.056 105.856C199.333 106.229 199.659 106.517 200.032 106.72C200.416 106.923 200.843 107.024 201.312 107.024ZM208.065 108V97.504H209.393V101.904H214.273V97.504H215.617V108H214.273V103.056H209.393V108H208.065Z" fill="#111032"/>
<path d="M143.312 143.192C142.651 143.192 142.043 143.064 141.488 142.808C140.944 142.552 140.475 142.189 140.08 141.72C139.685 141.24 139.376 140.664 139.152 139.992C138.939 139.309 138.832 138.547 138.832 137.704C138.832 136.861 138.939 136.109 139.152 135.448C139.376 134.776 139.685 134.211 140.08 133.752C140.475 133.283 140.944 132.925 141.488 132.68C142.043 132.435 142.651 132.312 143.312 132.312C143.973 132.312 144.576 132.44 145.12 132.696C145.675 132.941 146.149 133.299 146.544 133.768C146.949 134.227 147.259 134.792 147.472 135.464C147.696 136.125 147.808 136.872 147.808 137.704C147.808 138.547 147.696 139.309 147.472 139.992C147.259 140.664 146.949 141.24 146.544 141.72C146.149 142.189 145.675 142.552 145.12 142.808C144.576 143.064 143.973 143.192 143.312 143.192ZM143.312 142.024C143.781 142.024 144.203 141.923 144.576 141.72C144.96 141.517 145.285 141.229 145.552 140.856C145.829 140.472 146.043 140.019 146.192 139.496C146.341 138.963 146.416 138.365 146.416 137.704C146.416 137.053 146.341 136.467 146.192 135.944C146.043 135.421 145.829 134.979 145.552 134.616C145.285 134.253 144.96 133.976 144.576 133.784C144.203 133.581 143.781 133.48 143.312 133.48C142.843 133.48 142.416 133.581 142.032 133.784C141.659 133.976 141.333 134.253 141.056 134.616C140.789 134.979 140.581 135.421 140.432 135.944C140.283 136.467 140.208 137.053 140.208 137.704C140.208 138.365 140.283 138.963 140.432 139.496C140.581 140.019 140.789 140.472 141.056 140.856C141.333 141.229 141.659 141.517 142.032 141.72C142.416 141.923 142.843 142.024 143.312 142.024ZM150.065 143V132.504H151.393V136.904H156.273V132.504H157.617V143H156.273V138.056H151.393V143H150.065Z" fill="#111032"/>
<path d="M43.408 117.192C42.7467 117.192 42.1387 117.069 41.584 116.824C41.0293 116.579 40.544 116.227 40.128 115.768C39.7227 115.299 39.4027 114.728 39.168 114.056C38.944 113.373 38.832 112.605 38.832 111.752C38.832 110.909 38.9493 110.152 39.184 109.48C39.4187 108.808 39.744 108.237 40.16 107.768C40.576 107.299 41.0667 106.941 41.632 106.696C42.1973 106.44 42.816 106.312 43.488 106.312C44.128 106.312 44.688 106.445 45.168 106.712C45.6587 106.968 46.0587 107.267 46.368 107.608L45.648 108.472C45.3707 108.173 45.056 107.933 44.704 107.752C44.352 107.571 43.952 107.48 43.504 107.48C43.0027 107.48 42.5493 107.581 42.144 107.784C41.7387 107.976 41.392 108.259 41.104 108.632C40.816 108.995 40.592 109.437 40.432 109.96C40.2827 110.483 40.208 111.069 40.208 111.72C40.208 112.381 40.2827 112.979 40.432 113.512C40.592 114.035 40.8107 114.483 41.088 114.856C41.3653 115.229 41.7013 115.517 42.096 115.72C42.5013 115.923 42.9547 116.024 43.456 116.024C43.968 116.024 44.416 115.923 44.8 115.72C45.184 115.507 45.5467 115.213 45.888 114.84L46.624 115.672C46.208 116.152 45.7387 116.525 45.216 116.792C44.6933 117.059 44.0907 117.192 43.408 117.192Z" fill="#111032"/>
<path d="M39.44 143V132.504H40.768V136.904H45.648V132.504H46.992V143H45.648V138.056H40.768V143H39.44Z" fill="#111032"/>
<path d="M43.312 91.192C42.6507 91.192 42.0427 91.064 41.488 90.808C40.944 90.552 40.4747 90.1893 40.08 89.72C39.6853 89.24 39.376 88.664 39.152 87.992C38.9387 87.3093 38.832 86.5467 38.832 85.704C38.832 84.8613 38.9387 84.1093 39.152 83.448C39.376 82.776 39.6853 82.2107 40.08 81.752C40.4747 81.2827 40.944 80.9253 41.488 80.68C42.0427 80.4347 42.6507 80.312 43.312 80.312C43.9733 80.312 44.576 80.44 45.12 80.696C45.6747 80.9413 46.1493 81.2987 46.544 81.768C46.9493 82.2267 47.2587 82.792 47.472 83.464C47.696 84.1253 47.808 84.872 47.808 85.704C47.808 86.5467 47.696 87.3093 47.472 87.992C47.2587 88.664 46.9493 89.24 46.544 89.72C46.1493 90.1893 45.6747 90.552 45.12 90.808C44.576 91.064 43.9733 91.192 43.312 91.192ZM43.312 90.024C43.7813 90.024 44.2027 89.9227 44.576 89.72C44.96 89.5173 45.2853 89.2293 45.552 88.856C45.8293 88.472 46.0427 88.0187 46.192 87.496C46.3413 86.9627 46.416 86.3653 46.416 85.704C46.416 85.0533 46.3413 84.4667 46.192 83.944C46.0427 83.4213 45.8293 82.9787 45.552 82.616C45.2853 82.2533 44.96 81.976 44.576 81.784C44.2027 81.5813 43.7813 81.48 43.312 81.48C42.8427 81.48 42.416 81.5813 42.032 81.784C41.6587 81.976 41.3333 82.2533 41.056 82.616C40.7893 82.9787 40.5813 83.4213 40.432 83.944C40.2827 84.4667 40.208 85.0533 40.208 85.704C40.208 86.3653 40.2827 86.9627 40.432 87.496C40.5813 88.0187 40.7893 88.472 41.056 88.856C41.3333 89.2293 41.6587 89.5173 42.032 89.72C42.416 89.9227 42.8427 90.024 43.312 90.024ZM50.065 91V80.504H51.393V84.904H56.273V80.504H57.617V91H56.273V86.056H51.393V91H50.065Z" fill="#111032"/>
<path d="M143.312 47.192C142.651 47.192 142.043 47.064 141.488 46.808C140.944 46.552 140.475 46.1893 140.08 45.72C139.685 45.24 139.376 44.664 139.152 43.992C138.939 43.3093 138.832 42.5467 138.832 41.704C138.832 40.8613 138.939 40.1093 139.152 39.448C139.376 38.776 139.685 38.2107 140.08 37.752C140.475 37.2827 140.944 36.9253 141.488 36.68C142.043 36.4347 142.651 36.312 143.312 36.312C143.973 36.312 144.576 36.44 145.12 36.696C145.675 36.9413 146.149 37.2987 146.544 37.768C146.949 38.2267 147.259 38.792 147.472 39.464C147.696 40.1253 147.808 40.872 147.808 41.704C147.808 42.5467 147.696 43.3093 147.472 43.992C147.259 44.664 146.949 45.24 146.544 45.72C146.149 46.1893 145.675 46.552 145.12 46.808C144.576 47.064 143.973 47.192 143.312 47.192ZM143.312 46.024C143.781 46.024 144.203 45.9227 144.576 45.72C144.96 45.5173 145.285 45.2293 145.552 44.856C145.829 44.472 146.043 44.0187 146.192 43.496C146.341 42.9627 146.416 42.3653 146.416 41.704C146.416 41.0533 146.341 40.4667 146.192 39.944C146.043 39.4213 145.829 38.9787 145.552 38.616C145.285 38.2533 144.96 37.976 144.576 37.784C144.203 37.5813 143.781 37.48 143.312 37.48C142.843 37.48 142.416 37.5813 142.032 37.784C141.659 37.976 141.333 38.2533 141.056 38.616C140.789 38.9787 140.581 39.4213 140.432 39.944C140.283 40.4667 140.208 41.0533 140.208 41.704C140.208 42.3653 140.283 42.9627 140.432 43.496C140.581 44.0187 140.789 44.472 141.056 44.856C141.333 45.2293 141.659 45.5173 142.032 45.72C142.416 45.9227 142.843 46.024 143.312 46.024Z" fill="#111032"/>
<path d="M52 42H134" stroke="#111032"/>
<path d="M53 112H135" stroke="#111032"/>
<path d="M43 51V59" stroke="#111032"/>
<path d="M43 24V32" stroke="#111032"/>
<path d="M43 95V103" stroke="#111032"/>
<path d="M5 85V93" stroke="#111032"/>
<path d="M5 59V67" stroke="#111032"/>
<path d="M43 121V129" stroke="#111032"/>
<path d="M144 120V128" stroke="#111032"/>
<path d="M144 95V103" stroke="#111032"/>
<path d="M35 46L13 73.7165M13 80.7717L35 110" stroke="#111032"/>
<path d="M152 42L174 69.7165M174 76.7717L152 106" stroke="#111032"/>
<path d="M187 68L196 59" stroke="#111032"/>
<path d="M187 86L196 95" stroke="#111032"/>
</svg>
