<svg width="98" height="242" viewBox="0 0 98 242" fill="none" xmlns="http://www.w3.org/2000/svg">
<path d="M12.44 89V78.504H13.768V82.904H18.648V78.504H19.992V89H18.648V84.056H13.768V89H12.44Z" fill="#111032"/>
<path d="M12.44 161V150.504H13.768V154.904H18.648V150.504H19.992V161H18.648V156.056H13.768V161H12.44Z" fill="#111032"/>
<path d="M12.44 197V186.504H13.768V190.904H18.648V186.504H19.992V197H18.648V192.056H13.768V197H12.44Z" fill="#111032"/>
<path d="M1.44 125V114.504H2.768V118.904H7.648V114.504H8.992V125H7.648V120.056H2.768V125H1.44ZM15.7495 125.192C15.0882 125.192 14.4802 125.064 13.9255 124.808C13.3815 124.552 12.9122 124.189 12.5175 123.72C12.1228 123.24 11.8135 122.664 11.5895 121.992C11.3762 121.309 11.2695 120.547 11.2695 119.704C11.2695 118.861 11.3762 118.109 11.5895 117.448C11.8135 116.776 12.1228 116.211 12.5175 115.752C12.9122 115.283 13.3815 114.925 13.9255 114.68C14.4802 114.435 15.0882 114.312 15.7495 114.312C16.4108 114.312 17.0135 114.44 17.5575 114.696C18.1122 114.941 18.5868 115.299 18.9815 115.768C19.3868 116.227 19.6962 116.792 19.9095 117.464C20.1335 118.125 20.2455 118.872 20.2455 119.704C20.2455 120.547 20.1335 121.309 19.9095 121.992C19.6962 122.664 19.3868 123.24 18.9815 123.72C18.5868 124.189 18.1122 124.552 17.5575 124.808C17.0135 125.064 16.4108 125.192 15.7495 125.192ZM15.7495 124.024C16.2188 124.024 16.6402 123.923 17.0135 123.72C17.3975 123.517 17.7228 123.229 17.9895 122.856C18.2668 122.472 18.4802 122.019 18.6295 121.496C18.7788 120.963 18.8535 120.365 18.8535 119.704C18.8535 119.053 18.7788 118.467 18.6295 117.944C18.4802 117.421 18.2668 116.979 17.9895 116.616C17.7228 116.253 17.3975 115.976 17.0135 115.784C16.6402 115.581 16.2188 115.48 15.7495 115.48C15.2802 115.48 14.8535 115.581 14.4695 115.784C14.0962 115.976 13.7708 116.253 13.4935 116.616C13.2268 116.979 13.0188 117.421 12.8695 117.944C12.7202 118.467 12.6455 119.053 12.6455 119.704C12.6455 120.365 12.7202 120.963 12.8695 121.496C13.0188 122.019 13.2268 122.472 13.4935 122.856C13.7708 123.229 14.0962 123.517 14.4695 123.72C14.8535 123.923 15.2802 124.024 15.7495 124.024Z" fill="#111032"/>
<path d="M81.312 89.192C80.6507 89.192 80.0427 89.064 79.488 88.808C78.944 88.552 78.4747 88.1893 78.08 87.72C77.6853 87.24 77.376 86.664 77.152 85.992C76.9387 85.3093 76.832 84.5467 76.832 83.704C76.832 82.8613 76.9387 82.1093 77.152 81.448C77.376 80.776 77.6853 80.2107 78.08 79.752C78.4747 79.2827 78.944 78.9253 79.488 78.68C80.0427 78.4347 80.6507 78.312 81.312 78.312C81.9733 78.312 82.576 78.44 83.12 78.696C83.6747 78.9413 84.1493 79.2987 84.544 79.768C84.9493 80.2267 85.2587 80.792 85.472 81.464C85.696 82.1253 85.808 82.872 85.808 83.704C85.808 84.5467 85.696 85.3093 85.472 85.992C85.2587 86.664 84.9493 87.24 84.544 87.72C84.1493 88.1893 83.6747 88.552 83.12 88.808C82.576 89.064 81.9733 89.192 81.312 89.192ZM81.312 88.024C81.7813 88.024 82.2027 87.9227 82.576 87.72C82.96 87.5173 83.2853 87.2293 83.552 86.856C83.8293 86.472 84.0427 86.0187 84.192 85.496C84.3413 84.9627 84.416 84.3653 84.416 83.704C84.416 83.0533 84.3413 82.4667 84.192 81.944C84.0427 81.4213 83.8293 80.9787 83.552 80.616C83.2853 80.2533 82.96 79.976 82.576 79.784C82.2027 79.5813 81.7813 79.48 81.312 79.48C80.8427 79.48 80.416 79.5813 80.032 79.784C79.6587 79.976 79.3333 80.2533 79.056 80.616C78.7893 80.9787 78.5813 81.4213 78.432 81.944C78.2827 82.4667 78.208 83.0533 78.208 83.704C78.208 84.3653 78.2827 84.9627 78.432 85.496C78.5813 86.0187 78.7893 86.472 79.056 86.856C79.3333 87.2293 79.6587 87.5173 80.032 87.72C80.416 87.9227 80.8427 88.024 81.312 88.024ZM88.065 89V78.504H89.393V82.904H94.273V78.504H95.617V89H94.273V84.056H89.393V89H88.065Z" fill="#111032"/>
<path d="M81.312 161.192C80.6507 161.192 80.0427 161.064 79.488 160.808C78.944 160.552 78.4747 160.189 78.08 159.72C77.6853 159.24 77.376 158.664 77.152 157.992C76.9387 157.309 76.832 156.547 76.832 155.704C76.832 154.861 76.9387 154.109 77.152 153.448C77.376 152.776 77.6853 152.211 78.08 151.752C78.4747 151.283 78.944 150.925 79.488 150.68C80.0427 150.435 80.6507 150.312 81.312 150.312C81.9733 150.312 82.576 150.44 83.12 150.696C83.6747 150.941 84.1493 151.299 84.544 151.768C84.9493 152.227 85.2587 152.792 85.472 153.464C85.696 154.125 85.808 154.872 85.808 155.704C85.808 156.547 85.696 157.309 85.472 157.992C85.2587 158.664 84.9493 159.24 84.544 159.72C84.1493 160.189 83.6747 160.552 83.12 160.808C82.576 161.064 81.9733 161.192 81.312 161.192ZM81.312 160.024C81.7813 160.024 82.2027 159.923 82.576 159.72C82.96 159.517 83.2853 159.229 83.552 158.856C83.8293 158.472 84.0427 158.019 84.192 157.496C84.3413 156.963 84.416 156.365 84.416 155.704C84.416 155.053 84.3413 154.467 84.192 153.944C84.0427 153.421 83.8293 152.979 83.552 152.616C83.2853 152.253 82.96 151.976 82.576 151.784C82.2027 151.581 81.7813 151.48 81.312 151.48C80.8427 151.48 80.416 151.581 80.032 151.784C79.6587 151.976 79.3333 152.253 79.056 152.616C78.7893 152.979 78.5813 153.421 78.432 153.944C78.2827 154.467 78.208 155.053 78.208 155.704C78.208 156.365 78.2827 156.963 78.432 157.496C78.5813 158.019 78.7893 158.472 79.056 158.856C79.3333 159.229 79.6587 159.517 80.032 159.72C80.416 159.923 80.8427 160.024 81.312 160.024ZM88.065 161V150.504H89.393V154.904H94.273V150.504H95.617V161H94.273V156.056H89.393V161H88.065Z" fill="#111032"/>
<path d="M81.312 197.192C80.6507 197.192 80.0427 197.064 79.488 196.808C78.944 196.552 78.4747 196.189 78.08 195.72C77.6853 195.24 77.376 194.664 77.152 193.992C76.9387 193.309 76.832 192.547 76.832 191.704C76.832 190.861 76.9387 190.109 77.152 189.448C77.376 188.776 77.6853 188.211 78.08 187.752C78.4747 187.283 78.944 186.925 79.488 186.68C80.0427 186.435 80.6507 186.312 81.312 186.312C81.9733 186.312 82.576 186.44 83.12 186.696C83.6747 186.941 84.1493 187.299 84.544 187.768C84.9493 188.227 85.2587 188.792 85.472 189.464C85.696 190.125 85.808 190.872 85.808 191.704C85.808 192.547 85.696 193.309 85.472 193.992C85.2587 194.664 84.9493 195.24 84.544 195.72C84.1493 196.189 83.6747 196.552 83.12 196.808C82.576 197.064 81.9733 197.192 81.312 197.192ZM81.312 196.024C81.7813 196.024 82.2027 195.923 82.576 195.72C82.96 195.517 83.2853 195.229 83.552 194.856C83.8293 194.472 84.0427 194.019 84.192 193.496C84.3413 192.963 84.416 192.365 84.416 191.704C84.416 191.053 84.3413 190.467 84.192 189.944C84.0427 189.421 83.8293 188.979 83.552 188.616C83.2853 188.253 82.96 187.976 82.576 187.784C82.2027 187.581 81.7813 187.48 81.312 187.48C80.8427 187.48 80.416 187.581 80.032 187.784C79.6587 187.976 79.3333 188.253 79.056 188.616C78.7893 188.979 78.5813 189.421 78.432 189.944C78.2827 190.467 78.208 191.053 78.208 191.704C78.208 192.365 78.2827 192.963 78.432 193.496C78.5813 194.019 78.7893 194.472 79.056 194.856C79.3333 195.229 79.6587 195.517 80.032 195.72C80.416 195.923 80.8427 196.024 81.312 196.024ZM88.065 197V186.504H89.393V190.904H94.273V186.504H95.617V197H94.273V192.056H89.393V197H88.065Z" fill="#111032"/>
<path d="M77.44 125V114.504H78.768V118.904H83.648V114.504H84.992V125H83.648V120.056H78.768V125H77.44Z" fill="#111032"/>
<path d="M22.44 21V10.504H23.768V14.904H28.648V10.504H29.992V21H28.648V16.056H23.768V21H22.44Z" fill="#111032"/>
<path d="M75.312 21.192C74.6507 21.192 74.0427 21.064 73.488 20.808C72.944 20.552 72.4747 20.1893 72.08 19.72C71.6853 19.24 71.376 18.664 71.152 17.992C70.9387 17.3093 70.832 16.5467 70.832 15.704C70.832 14.8613 70.9387 14.1093 71.152 13.448C71.376 12.776 71.6853 12.2107 72.08 11.752C72.4747 11.2827 72.944 10.9253 73.488 10.68C74.0427 10.4347 74.6507 10.312 75.312 10.312C75.9733 10.312 76.576 10.44 77.12 10.696C77.6747 10.9413 78.1493 11.2987 78.544 11.768C78.9493 12.2267 79.2587 12.792 79.472 13.464C79.696 14.1253 79.808 14.872 79.808 15.704C79.808 16.5467 79.696 17.3093 79.472 17.992C79.2587 18.664 78.9493 19.24 78.544 19.72C78.1493 20.1893 77.6747 20.552 77.12 20.808C76.576 21.064 75.9733 21.192 75.312 21.192ZM75.312 20.024C75.7813 20.024 76.2027 19.9227 76.576 19.72C76.96 19.5173 77.2853 19.2293 77.552 18.856C77.8293 18.472 78.0427 18.0187 78.192 17.496C78.3413 16.9627 78.416 16.3653 78.416 15.704C78.416 15.0533 78.3413 14.4667 78.192 13.944C78.0427 13.4213 77.8293 12.9787 77.552 12.616C77.2853 12.2533 76.96 11.976 76.576 11.784C76.2027 11.5813 75.7813 11.48 75.312 11.48C74.8427 11.48 74.416 11.5813 74.032 11.784C73.6587 11.976 73.3333 12.2533 73.056 12.616C72.7893 12.9787 72.5813 13.4213 72.432 13.944C72.2827 14.4667 72.208 15.0533 72.208 15.704C72.208 16.3653 72.2827 16.9627 72.432 17.496C72.5813 18.0187 72.7893 18.472 73.056 18.856C73.3333 19.2293 73.6587 19.5173 74.032 19.72C74.416 19.9227 74.8427 20.024 75.312 20.024Z" fill="#111032"/>
<path d="M35 24L47 37" stroke="#111032"/>
<path d="M69 25L54 39" stroke="#111032"/>
<path d="M67 23L52 37" stroke="#111032"/>
<path d="M46.44 233V222.504H47.768V226.904H52.648V222.504H53.992V233H52.648V228.056H47.768V233H46.44Z" fill="#111032"/>
<path d="M50.408 53.192C49.7467 53.192 49.1387 53.0693 48.584 52.824C48.0293 52.5787 47.544 52.2267 47.128 51.768C46.7227 51.2987 46.4027 50.728 46.168 50.056C45.944 49.3733 45.832 48.6053 45.832 47.752C45.832 46.9093 45.9493 46.152 46.184 45.48C46.4187 44.808 46.744 44.2373 47.16 43.768C47.576 43.2987 48.0667 42.9413 48.632 42.696C49.1973 42.44 49.816 42.312 50.488 42.312C51.128 42.312 51.688 42.4453 52.168 42.712C52.6587 42.968 53.0587 43.2667 53.368 43.608L52.648 44.472C52.3707 44.1733 52.056 43.9333 51.704 43.752C51.352 43.5707 50.952 43.48 50.504 43.48C50.0027 43.48 49.5493 43.5813 49.144 43.784C48.7387 43.976 48.392 44.2587 48.104 44.632C47.816 44.9947 47.592 45.4373 47.432 45.96C47.2827 46.4827 47.208 47.0693 47.208 47.72C47.208 48.3813 47.2827 48.9787 47.432 49.512C47.592 50.0347 47.8107 50.4827 48.088 50.856C48.3653 51.2293 48.7013 51.5173 49.096 51.72C49.5013 51.9227 49.9547 52.024 50.456 52.024C50.968 52.024 51.416 51.9227 51.8 51.72C52.184 51.5067 52.5467 51.2133 52.888 50.84L53.624 51.672C53.208 52.152 52.7387 52.5253 52.216 52.792C51.6933 53.0587 51.0907 53.192 50.408 53.192Z" fill="#111032"/>
<path d="M50.408 89.192C49.7467 89.192 49.1387 89.0693 48.584 88.824C48.0293 88.5787 47.544 88.2267 47.128 87.768C46.7227 87.2987 46.4027 86.728 46.168 86.056C45.944 85.3733 45.832 84.6053 45.832 83.752C45.832 82.9093 45.9493 82.152 46.184 81.48C46.4187 80.808 46.744 80.2373 47.16 79.768C47.576 79.2987 48.0667 78.9413 48.632 78.696C49.1973 78.44 49.816 78.312 50.488 78.312C51.128 78.312 51.688 78.4453 52.168 78.712C52.6587 78.968 53.0587 79.2667 53.368 79.608L52.648 80.472C52.3707 80.1733 52.056 79.9333 51.704 79.752C51.352 79.5707 50.952 79.48 50.504 79.48C50.0027 79.48 49.5493 79.5813 49.144 79.784C48.7387 79.976 48.392 80.2587 48.104 80.632C47.816 80.9947 47.592 81.4373 47.432 81.96C47.2827 82.4827 47.208 83.0693 47.208 83.72C47.208 84.3813 47.2827 84.9787 47.432 85.512C47.592 86.0347 47.8107 86.4827 48.088 86.856C48.3653 87.2293 48.7013 87.5173 49.096 87.72C49.5013 87.9227 49.9547 88.024 50.456 88.024C50.968 88.024 51.416 87.9227 51.8 87.72C52.184 87.5067 52.5467 87.2133 52.888 86.84L53.624 87.672C53.208 88.152 52.7387 88.5253 52.216 88.792C51.6933 89.0587 51.0907 89.192 50.408 89.192Z" fill="#111032"/>
<path d="M50.408 161.192C49.7467 161.192 49.1387 161.069 48.584 160.824C48.0293 160.579 47.544 160.227 47.128 159.768C46.7227 159.299 46.4027 158.728 46.168 158.056C45.944 157.373 45.832 156.605 45.832 155.752C45.832 154.909 45.9493 154.152 46.184 153.48C46.4187 152.808 46.744 152.237 47.16 151.768C47.576 151.299 48.0667 150.941 48.632 150.696C49.1973 150.44 49.816 150.312 50.488 150.312C51.128 150.312 51.688 150.445 52.168 150.712C52.6587 150.968 53.0587 151.267 53.368 151.608L52.648 152.472C52.3707 152.173 52.056 151.933 51.704 151.752C51.352 151.571 50.952 151.48 50.504 151.48C50.0027 151.48 49.5493 151.581 49.144 151.784C48.7387 151.976 48.392 152.259 48.104 152.632C47.816 152.995 47.592 153.437 47.432 153.96C47.2827 154.483 47.208 155.069 47.208 155.72C47.208 156.381 47.2827 156.979 47.432 157.512C47.592 158.035 47.8107 158.483 48.088 158.856C48.3653 159.229 48.7013 159.517 49.096 159.72C49.5013 159.923 49.9547 160.024 50.456 160.024C50.968 160.024 51.416 159.923 51.8 159.72C52.184 159.507 52.5467 159.213 52.888 158.84L53.624 159.672C53.208 160.152 52.7387 160.525 52.216 160.792C51.6933 161.059 51.0907 161.192 50.408 161.192Z" fill="#111032"/>
<path d="M50.408 125.192C49.7467 125.192 49.1387 125.069 48.584 124.824C48.0293 124.579 47.544 124.227 47.128 123.768C46.7227 123.299 46.4027 122.728 46.168 122.056C45.944 121.373 45.832 120.605 45.832 119.752C45.832 118.909 45.9493 118.152 46.184 117.48C46.4187 116.808 46.744 116.237 47.16 115.768C47.576 115.299 48.0667 114.941 48.632 114.696C49.1973 114.44 49.816 114.312 50.488 114.312C51.128 114.312 51.688 114.445 52.168 114.712C52.6587 114.968 53.0587 115.267 53.368 115.608L52.648 116.472C52.3707 116.173 52.056 115.933 51.704 115.752C51.352 115.571 50.952 115.48 50.504 115.48C50.0027 115.48 49.5493 115.581 49.144 115.784C48.7387 115.976 48.392 116.259 48.104 116.632C47.816 116.995 47.592 117.437 47.432 117.96C47.2827 118.483 47.208 119.069 47.208 119.72C47.208 120.381 47.2827 120.979 47.432 121.512C47.592 122.035 47.8107 122.483 48.088 122.856C48.3653 123.229 48.7013 123.517 49.096 123.72C49.5013 123.923 49.9547 124.024 50.456 124.024C50.968 124.024 51.416 123.923 51.8 123.72C52.184 123.507 52.5467 123.213 52.888 122.84L53.624 123.672C53.208 124.152 52.7387 124.525 52.216 124.792C51.6933 125.059 51.0907 125.192 50.408 125.192Z" fill="#111032"/>
<path d="M50.408 197.192C49.7467 197.192 49.1387 197.069 48.584 196.824C48.0293 196.579 47.544 196.227 47.128 195.768C46.7227 195.299 46.4027 194.728 46.168 194.056C45.944 193.373 45.832 192.605 45.832 191.752C45.832 190.909 45.9493 190.152 46.184 189.48C46.4187 188.808 46.744 188.237 47.16 187.768C47.576 187.299 48.0667 186.941 48.632 186.696C49.1973 186.44 49.816 186.312 50.488 186.312C51.128 186.312 51.688 186.445 52.168 186.712C52.6587 186.968 53.0587 187.267 53.368 187.608L52.648 188.472C52.3707 188.173 52.056 187.933 51.704 187.752C51.352 187.571 50.952 187.48 50.504 187.48C50.0027 187.48 49.5493 187.581 49.144 187.784C48.7387 187.976 48.392 188.259 48.104 188.632C47.816 188.995 47.592 189.437 47.432 189.96C47.2827 190.483 47.208 191.069 47.208 191.72C47.208 192.381 47.2827 192.979 47.432 193.512C47.592 194.035 47.8107 194.483 48.088 194.856C48.3653 195.229 48.7013 195.517 49.096 195.72C49.5013 195.923 49.9547 196.024 50.456 196.024C50.968 196.024 51.416 195.923 51.8 195.72C52.184 195.507 52.5467 195.213 52.888 194.84L53.624 195.672C53.208 196.152 52.7387 196.525 52.216 196.792C51.6933 197.059 51.0907 197.192 50.408 197.192Z" fill="#111032"/>
<path d="M50 58V72" stroke="#111032"/>
<path d="M50 130V144" stroke="#111032"/>
<path d="M50 94V108" stroke="#111032"/>
<path d="M50 166V180" stroke="#111032"/>
<path d="M50 202V216" stroke="#111032"/>
<path d="M58 83H72" stroke="#111032"/>
<path d="M58 155H72" stroke="#111032"/>
<path d="M58 191H72" stroke="#111032"/>
<path d="M58 119H72" stroke="#111032"/>
<path d="M26 83H40" stroke="#111032"/>
<path d="M26 155H40" stroke="#111032"/>
<path d="M26 191H40" stroke="#111032"/>
<path d="M26 119H40" stroke="#111032"/>
</svg>
