<svg width="123" height="36" viewBox="0 0 123 36" fill="none" xmlns="http://www.w3.org/2000/svg">
<path d="M11.5242 6.44867C11.471 5.80509 11.2218 5.3031 10.7765 4.94269C10.3379 4.58229 9.66993 4.40208 8.77272 4.40208C8.20116 4.40208 7.73262 4.46966 7.36709 4.60481C7.00821 4.73353 6.74237 4.91051 6.56957 5.13576C6.39677 5.36102 6.30705 5.61845 6.30041 5.90806C6.28712 6.14618 6.33032 6.36178 6.43001 6.55486C6.53634 6.7415 6.70249 6.91204 6.92845 7.0665C7.15442 7.21453 7.44352 7.34968 7.79576 7.47196C8.148 7.59424 8.56669 7.70365 9.05185 7.80018L10.7266 8.14772C11.8565 8.37941 12.8235 8.68511 13.6276 9.06482C14.4318 9.44453 15.0897 9.89182 15.6015 10.4067C16.1132 10.9151 16.4887 11.4879 16.728 12.125C16.9739 12.7622 17.1002 13.4572 17.1068 14.2102C17.1002 15.5103 16.7645 16.6108 16.0999 17.5118C15.4353 18.4128 14.485 19.0982 13.2488 19.568C12.0193 20.0378 10.5406 20.2728 8.8126 20.2728C7.03811 20.2728 5.4896 20.0185 4.16704 19.5101C2.85113 19.0017 1.82765 18.2197 1.09659 17.1643C0.372176 16.1024 0.00664599 14.7444 0 13.0904H5.26363C5.29686 13.6954 5.45304 14.2038 5.73217 14.6157C6.01131 15.0276 6.40342 15.3397 6.90852 15.5521C7.42026 15.7645 8.02837 15.8707 8.73284 15.8707C9.32434 15.8707 9.81946 15.7999 10.2182 15.6583C10.617 15.5167 10.9194 15.3204 11.1254 15.0694C11.3314 14.8184 11.4378 14.532 11.4444 14.2102C11.4378 13.9078 11.3348 13.6439 11.1354 13.4186C10.9426 13.1869 10.6236 12.981 10.1783 12.8008C9.73307 12.6142 9.1316 12.4404 8.37396 12.2795L6.34028 11.8547C4.53257 11.475 3.107 10.8411 2.06358 9.95296C1.02681 9.05838 0.511742 7.8388 0.518388 6.29421C0.511742 5.03923 0.857334 3.94192 1.55516 3.0023C2.25964 2.05624 3.23328 1.31934 4.47608 0.791603C5.72553 0.263868 7.15774 0 8.77272 0C10.4209 0 11.8465 0.267086 13.0494 0.801257C14.2523 1.33543 15.1795 2.08842 15.8308 3.06022C16.4887 4.02559 16.821 5.15507 16.8277 6.44867H11.5242Z" fill="#2F3878"/>
<path d="M38.276 7.68434H32.6535C32.6136 7.23383 32.5072 6.82516 32.3344 6.45832C32.1683 6.09148 31.9357 5.77613 31.6366 5.51226C31.3442 5.24196 30.9886 5.03601 30.5699 4.89442C30.1512 4.7464 29.676 4.67239 29.1444 4.67239C28.2139 4.67239 27.4264 4.8912 26.7817 5.32884C26.1437 5.76647 25.6585 6.39396 25.3262 7.21131C25.0006 8.02866 24.8378 9.01011 24.8378 10.1557C24.8378 11.3656 25.0039 12.3793 25.3362 13.1966C25.6752 14.0075 26.1636 14.6189 26.8017 15.0308C27.4397 15.4363 28.2073 15.639 29.1045 15.639C29.6162 15.639 30.0748 15.5778 30.4802 15.4556C30.8856 15.3268 31.2379 15.1434 31.5369 14.9053C31.836 14.6672 32.0786 14.3808 32.2647 14.0461C32.4574 13.705 32.587 13.3221 32.6535 12.8973L38.276 12.9359C38.2095 13.7726 37.9669 14.6253 37.5482 15.4942C37.1295 16.3566 36.5347 17.1546 35.7638 17.8883C34.9995 18.6155 34.0524 19.2012 32.9226 19.6453C31.7928 20.0893 30.4802 20.3114 28.9849 20.3114C27.1107 20.3114 25.4293 19.922 23.9406 19.1433C22.4585 18.3645 21.2855 17.219 20.4215 15.7066C19.5642 14.1941 19.1355 12.3439 19.1355 10.1557C19.1355 7.95464 19.5741 6.10113 20.4514 4.59516C21.3287 3.08275 22.5117 1.94039 24.0004 1.1681C25.4891 0.389366 27.1506 0 28.9849 0C30.2742 0 31.4605 0.170548 32.5438 0.511645C33.6271 0.852743 34.5775 1.35152 35.3949 2.00797C36.2124 2.65798 36.8703 3.45924 37.3688 4.41174C37.8672 5.36423 38.1696 6.4551 38.276 7.68434Z" fill="#2F3878"/>
<path d="M46.3334 0.270304V20.0411H40.7907V0.270304H46.3334Z" fill="#2F3878"/>
<path d="M48.9602 20.0411V0.270304H63.6745V4.59516H54.503V7.99326H62.9168V12.3181H54.503V15.7162H63.6346V20.0411H48.9602Z" fill="#2F3878"/>
<path d="M84.0885 0.270304V20.0411H79.4629L72.0858 9.65369H71.9662V20.0411H66.4234V0.270304H71.1288L78.3862 10.6191H78.5457V0.270304H84.0885Z" fill="#2F3878"/>
<path d="M105.771 7.68434H100.149C100.109 7.23383 100.002 6.82516 99.8296 6.45832C99.6634 6.09148 99.4308 5.77613 99.1317 5.51226C98.8393 5.24196 98.4837 5.03601 98.065 4.89442C97.6463 4.7464 97.1712 4.67239 96.6395 4.67239C95.709 4.67239 94.9215 4.8912 94.2768 5.32884C93.6388 5.76647 93.1536 6.39396 92.8214 7.21131C92.4957 8.02866 92.3329 9.01011 92.3329 10.1557C92.3329 11.3656 92.499 12.3793 92.8313 13.1966C93.1703 14.0075 93.6588 14.6189 94.2968 15.0308C94.9348 15.4363 95.7024 15.639 96.5996 15.639C97.1113 15.639 97.5699 15.5778 97.9753 15.4556C98.3807 15.3268 98.733 15.1434 99.032 14.9053C99.3311 14.6672 99.5737 14.3808 99.7598 14.0461C99.9525 13.705 100.082 13.3221 100.149 12.8973L105.771 12.9359C105.705 13.7726 105.462 14.6253 105.043 15.4942C104.625 16.3566 104.03 17.1546 103.259 17.8883C102.495 18.6155 101.548 19.2012 100.418 19.6453C99.2879 20.0893 97.9753 20.3114 96.48 20.3114C94.6058 20.3114 92.9244 19.922 91.4357 19.1433C89.9536 18.3645 88.7806 17.219 87.9166 15.7066C87.0593 14.1941 86.6306 12.3439 86.6306 10.1557C86.6306 7.95464 87.0692 6.10113 87.9465 4.59516C88.8238 3.08275 90.0068 1.94039 91.4955 1.1681C92.9842 0.389366 94.6457 0 96.48 0C97.7693 0 98.9556 0.170548 100.039 0.511645C101.122 0.852743 102.073 1.35152 102.89 2.00797C103.708 2.65798 104.365 3.45924 104.864 4.41174C105.362 5.36423 105.665 6.4551 105.771 7.68434Z" fill="#2F3878"/>
<path d="M108.286 20.0411V0.270304H123V4.59516H113.829V7.99326H122.242V12.3181H113.829V15.7162H122.96V20.0411H108.286Z" fill="#2F3878"/>
<path d="M4.51738 30.0092V30.9194H0.894362V30.0092H4.51738ZM1.13362 27.2786V33.6335H0.125325V27.2786H1.13362ZM5.28642 27.2786V33.6335H4.27812V27.2786H5.28642Z" fill="#2F3878"/>
<path d="M9.05897 33.7824C8.64312 33.7824 8.26572 33.7066 7.92678 33.5549C7.58783 33.4004 7.31867 33.1784 7.11929 32.8888C6.91991 32.5964 6.82022 32.2433 6.82022 31.8296C6.82022 31.4655 6.89427 31.1704 7.04239 30.9442C7.1905 30.7153 7.38845 30.536 7.63625 30.4064C7.88405 30.2767 8.15749 30.1802 8.45656 30.1168C8.75848 30.0506 9.06182 29.9982 9.36659 29.9595C9.76535 29.9099 10.0886 29.8727 10.3364 29.8478C10.5871 29.8203 10.7694 29.7747 10.8833 29.7113C11.0001 29.6479 11.0585 29.5375 11.0585 29.3803V29.3472C11.0585 28.939 10.9431 28.6218 10.7124 28.3956C10.4845 28.1695 10.1385 28.0564 9.6742 28.0564C9.19284 28.0564 8.81544 28.1584 8.54201 28.3625C8.26857 28.5667 8.07631 28.7846 7.96523 29.0162L7.00821 28.6853C7.1791 28.2991 7.40697 27.9985 7.69179 27.7833C7.97947 27.5654 8.29278 27.4137 8.63173 27.3282C8.97352 27.24 9.30962 27.1958 9.64002 27.1958C9.8508 27.1958 10.0929 27.2207 10.3663 27.2703C10.6426 27.3172 10.9089 27.4151 11.1653 27.5641C11.4245 27.713 11.6395 27.9378 11.8104 28.2384C11.9813 28.5391 12.0668 28.9418 12.0668 29.4465V33.6335H11.0585V32.7729H11.0072C10.9388 32.9108 10.8249 33.0584 10.6654 33.2156C10.5059 33.3728 10.2937 33.5066 10.0288 33.6169C9.76392 33.7272 9.44064 33.7824 9.05897 33.7824ZM9.21278 32.9053C9.61154 32.9053 9.94764 32.8295 10.2211 32.6777C10.4974 32.5261 10.7053 32.3302 10.8448 32.0903C10.9873 31.8503 11.0585 31.5979 11.0585 31.3331V30.4395C11.0157 30.4891 10.9218 30.5346 10.7765 30.576C10.6341 30.6146 10.4689 30.6491 10.2809 30.6794C10.0957 30.707 9.91488 30.7318 9.73829 30.7539C9.56454 30.7732 9.42355 30.7898 9.31532 30.8036C9.05328 30.8367 8.80832 30.8904 8.58046 30.9649C8.35545 31.0366 8.17315 31.1456 8.03359 31.2918C7.89687 31.4352 7.82851 31.631 7.82851 31.8793C7.82851 32.2185 7.95811 32.475 8.2173 32.6488C8.47935 32.8198 8.81117 32.9053 9.21278 32.9053Z" fill="#2F3878"/>
<path d="M14.3215 36C14.1506 36 13.9983 35.9862 13.8644 35.9586C13.7305 35.9338 13.6379 35.909 13.5867 35.8842L13.843 35.0236C14.2105 35.1146 14.5166 35.1119 14.7616 35.0153C15.0065 34.9215 15.2187 34.6374 15.3982 34.163L15.5862 33.6666L13.1594 27.2786H14.2532L16.0647 32.3426H16.133L17.9446 27.2786L19.0468 27.2951L16.2527 34.5602C16.1273 34.8829 15.9721 35.1505 15.787 35.3629C15.6018 35.578 15.3868 35.738 15.1418 35.8428C14.8997 35.9476 14.6263 36 14.3215 36Z" fill="#2F3878"/>
<path d="M20.3809 33.6335V27.2786H21.3892V30.0423H22.0557L24.4141 27.2786H25.7129L23.064 30.3402L25.7471 33.6335H24.4483L22.295 30.9525H21.3892V33.6335H20.3809Z" fill="#2F3878"/>
<path d="M28.7741 33.7824C28.3582 33.7824 27.9808 33.7066 27.6419 33.5549C27.303 33.4004 27.0338 33.1784 26.8344 32.8888C26.635 32.5964 26.5353 32.2433 26.5353 31.8296C26.5353 31.4655 26.6094 31.1704 26.7575 30.9442C26.9056 30.7153 27.1036 30.536 27.3514 30.4064C27.5992 30.2767 27.8726 30.1802 28.1717 30.1168C28.4736 30.0506 28.7769 29.9982 29.0817 29.9595C29.4805 29.9099 29.8037 29.8727 30.0515 29.8478C30.3022 29.8203 30.4845 29.7747 30.5984 29.7113C30.7152 29.6479 30.7736 29.5375 30.7736 29.3803V29.3472C30.7736 28.939 30.6582 28.6218 30.4275 28.3956C30.1997 28.1695 29.8536 28.0564 29.3893 28.0564C28.908 28.0564 28.5306 28.1584 28.2571 28.3625C27.9837 28.5667 27.7914 28.7846 27.6804 29.0162L26.7233 28.6853C26.8942 28.2991 27.1221 27.9985 27.4069 27.7833C27.6946 27.5654 28.0079 27.4137 28.3468 27.3282C28.6886 27.24 29.0247 27.1958 29.3551 27.1958C29.5659 27.1958 29.808 27.2207 30.0815 27.2703C30.3577 27.3172 30.6241 27.4151 30.8804 27.5641C31.1396 27.713 31.3546 27.9378 31.5255 28.2384C31.6964 28.5391 31.7819 28.9418 31.7819 29.4465V33.6335H30.7736V32.7729H30.7223C30.654 32.9108 30.54 33.0584 30.3805 33.2156C30.221 33.3728 30.0088 33.5066 29.7439 33.6169C29.479 33.7272 29.1558 33.7824 28.7741 33.7824ZM28.9279 32.9053C29.3267 32.9053 29.6628 32.8295 29.9362 32.6777C30.2125 32.5261 30.4204 32.3302 30.56 32.0903C30.7024 31.8503 30.7736 31.5979 30.7736 31.3331V30.4395C30.7309 30.4891 30.6369 30.5346 30.4916 30.576C30.3492 30.6146 30.184 30.6491 29.996 30.6794C29.8109 30.707 29.63 30.7318 29.4534 30.7539C29.2797 30.7732 29.1387 30.7898 29.0304 30.8036C28.7684 30.8367 28.5234 30.8904 28.2956 30.9649C28.0706 31.0366 27.8883 31.1456 27.7487 31.2918C27.612 31.4352 27.5436 31.631 27.5436 31.8793C27.5436 32.2185 27.6732 32.475 27.9324 32.6488C28.1945 32.8198 28.5263 32.9053 28.9279 32.9053Z" fill="#2F3878"/>
<path d="M36.3053 35.4539V32.7233H36.8522C36.9861 32.5881 37.1014 32.4419 37.1983 32.2847C37.2951 32.1275 37.3791 31.9413 37.4503 31.7262C37.5244 31.5083 37.587 31.2435 37.6383 30.9318C37.6896 30.6174 37.7352 30.2381 37.775 29.7941L37.9972 27.2786H42.1671V32.7233H43.1754V35.4539H42.1671V33.6335H37.3136V35.4539H36.3053ZM37.9972 32.7233H41.1588V28.1888H38.9371L38.7662 29.7941C38.695 30.4588 38.6067 31.0394 38.5013 31.5359C38.396 32.0323 38.2279 32.4281 37.9972 32.7233Z" fill="#2F3878"/>
<path d="M43.9327 33.6335V32.7233H44.1719C44.3685 32.7233 44.5322 32.686 44.6633 32.6116C44.7943 32.5343 44.8997 32.4006 44.9794 32.2102C45.062 32.0172 45.1247 31.7496 45.1674 31.4076C45.213 31.0628 45.2457 30.6243 45.2657 30.0919L45.3853 27.2786H49.7603V33.6335H48.752V28.1888H46.3423L46.2398 30.456C46.217 30.9773 46.1686 31.4366 46.0945 31.8337C46.0233 32.2282 45.9137 32.5591 45.7655 32.8267C45.6203 33.0942 45.4266 33.2956 45.1845 33.4307C44.9424 33.5659 44.639 33.6335 44.2745 33.6335H43.9327Z" fill="#2F3878"/>
<path d="M55.5579 33.6335V28.1722H53.8148C53.4217 28.1722 53.1127 28.2605 52.8877 28.437C52.6627 28.6135 52.5502 28.8563 52.5502 29.1652C52.5502 29.4686 52.6513 29.7072 52.8535 29.8809C53.0586 30.0547 53.3391 30.1416 53.6952 30.1416H55.8143V31.0518H53.6952C53.2508 31.0518 52.8677 30.9759 52.5459 30.8242C52.224 30.6725 51.9762 30.456 51.8025 30.1747C51.6287 29.8906 51.5419 29.5541 51.5419 29.1652C51.5419 28.7735 51.633 28.437 51.8153 28.1557C51.9976 27.8743 52.2582 27.6578 52.5972 27.5061C52.9389 27.3544 53.3448 27.2786 53.8148 27.2786H56.515V33.6335H55.5579ZM51.183 33.6335L53.0458 30.4726H54.1395L52.2767 33.6335H51.183Z" fill="#2F3878"/>
<path d="M61.7498 33.6335V27.2786H64.4329C65.1392 27.2786 65.7003 27.433 66.1162 27.742C66.532 28.0509 66.74 28.4591 66.74 28.9666C66.74 29.3527 66.6218 29.652 66.3853 29.8644C66.1489 30.074 65.8456 30.2161 65.4753 30.2905C65.7174 30.3236 65.9524 30.4064 66.1803 30.5388C66.411 30.6712 66.6018 30.8532 66.7528 31.0849C66.9037 31.3138 66.9792 31.5952 66.9792 31.9289C66.9792 32.2544 66.8938 32.5454 66.7229 32.8019C66.552 33.0584 66.307 33.2611 65.988 33.4101C65.669 33.559 65.2873 33.6335 64.843 33.6335H61.7498ZM62.7068 32.7398H64.843C65.1905 32.7398 65.4625 32.6598 65.659 32.4998C65.8556 32.3399 65.9538 32.122 65.9538 31.8462C65.9538 31.5179 65.8556 31.26 65.659 31.0725C65.4625 30.8822 65.1905 30.787 64.843 30.787H62.7068V32.7398ZM62.7068 29.943H64.4329C64.7034 29.943 64.9356 29.9071 65.1292 29.8354C65.3229 29.761 65.471 29.6561 65.5736 29.521C65.679 29.3831 65.7317 29.2203 65.7317 29.0328C65.7317 28.7652 65.6163 28.5556 65.3856 28.4039C65.1549 28.2495 64.8373 28.1722 64.4329 28.1722H62.7068V29.943Z" fill="#2F3878"/>
<path d="M71.1715 33.7659C70.5563 33.7659 70.0265 33.6252 69.5822 33.3439C69.1379 33.0625 68.7961 32.675 68.5568 32.1813C68.3176 31.6876 68.1979 31.1235 68.1979 30.4891C68.1979 29.8437 68.3204 29.2741 68.5654 28.7804C68.8132 28.2839 69.1578 27.8964 69.5993 27.6178C70.0436 27.3365 70.562 27.1958 71.1544 27.1958C71.6159 27.1958 72.0317 27.2786 72.402 27.4441C72.7723 27.6096 73.0756 27.8412 73.312 28.1391C73.5484 28.437 73.6951 28.7846 73.7521 29.1817H72.7438C72.6669 28.8921 72.496 28.6356 72.2311 28.4122C71.9691 28.186 71.6159 28.0729 71.1715 28.0729C70.7785 28.0729 70.4338 28.1722 70.1376 28.3708C69.8442 28.5667 69.615 28.8439 69.4497 29.2024C69.2874 29.5582 69.2062 29.9761 69.2062 30.456C69.2062 30.947 69.286 31.3745 69.4455 31.7386C69.6078 32.1027 69.8357 32.3854 70.1291 32.5867C70.4253 32.7881 70.7728 32.8888 71.1715 32.8888C71.4336 32.8888 71.6714 32.8446 71.885 32.7564C72.0986 32.6681 72.2795 32.5412 72.4276 32.3757C72.5757 32.2102 72.6811 32.0116 72.7438 31.78H73.7521C73.6951 32.1551 73.5541 32.493 73.3291 32.7936C73.1069 33.0915 72.8121 33.3287 72.4447 33.5052C72.0801 33.679 71.6557 33.7659 71.1715 33.7659Z" fill="#2F3878"/>
<path d="M77.9775 33.7659C77.3452 33.7659 76.7997 33.6307 76.3412 33.3604C75.8854 33.0873 75.5337 32.7067 75.2859 32.2185C75.0409 31.7275 74.9185 31.1566 74.9185 30.5057C74.9185 29.8547 75.0409 29.281 75.2859 28.7846C75.5337 28.2853 75.8783 27.8964 76.3198 27.6178C76.7641 27.3365 77.2825 27.1958 77.875 27.1958C78.2168 27.1958 78.5543 27.251 78.8875 27.3613C79.2208 27.4717 79.5241 27.6509 79.7976 27.8992C80.071 28.1447 80.2889 28.4701 80.4512 28.8756C80.6136 29.281 80.6948 29.7803 80.6948 30.3733V30.787H75.6362V29.943H79.6694C79.6694 29.5844 79.5953 29.2645 79.4472 28.9831C79.302 28.7018 79.094 28.4798 78.8234 28.317C78.5557 28.1543 78.2396 28.0729 77.875 28.0729C77.4734 28.0729 77.1259 28.1695 76.8325 28.3625C76.542 28.5529 76.3184 28.8011 76.1617 29.1073C76.0051 29.4134 75.9267 29.7416 75.9267 30.0919V30.6546C75.9267 31.1345 76.0122 31.5414 76.1831 31.8751C76.3568 32.2061 76.5975 32.4585 76.9051 32.6322C77.2127 32.8032 77.5702 32.8888 77.9775 32.8888C78.2424 32.8888 78.4817 32.8529 78.6953 32.7812C78.9118 32.7067 79.0983 32.5964 79.255 32.4502C79.4116 32.3013 79.5327 32.1165 79.6181 31.8958L80.5922 32.1606C80.4897 32.4805 80.3174 32.7619 80.0753 33.0046C79.8332 33.2446 79.5341 33.4321 79.1781 33.5673C78.822 33.6997 78.4218 33.7659 77.9775 33.7659Z" fill="#2F3878"/>
<path d="M82.8043 27.2786L84.3765 29.8768L85.9488 27.2786H87.1109L84.9918 30.456L87.1109 33.6335H85.9488L84.3765 31.1676L82.8043 33.6335H81.6422L83.7271 30.456L81.6422 27.2786H82.8043Z" fill="#2F3878"/>
</svg>
