<svg width="15" height="16" viewBox="0 0 15 16" fill="none" xmlns="http://www.w3.org/2000/svg">
<path d="M8.77939 12.0177L5.46429 10.186C5.03148 10.6548 4.4695 10.9808 3.8514 11.1218C3.23329 11.2627 2.58763 11.212 1.99832 10.9763C1.40902 10.7406 0.903318 10.3308 0.546944 9.80006C0.19057 9.26934 0 8.64229 0 8.0004C0 7.35851 0.19057 6.73146 0.546944 6.20074C0.903318 5.67003 1.40902 5.26018 1.99832 5.02447C2.58763 4.78875 3.23329 4.73807 3.8514 4.87901C4.4695 5.01995 5.03148 5.34599 5.46429 5.81476L8.78018 3.98307C8.59193 3.22806 8.68193 2.4294 9.03332 1.73681C9.38471 1.04421 9.97336 0.505235 10.6889 0.220899C11.4045 -0.0634372 12.1979 -0.0736091 12.9203 0.19229C13.6427 0.458189 14.2447 0.981904 14.6132 1.66527C14.9818 2.34863 15.0917 3.14472 14.9224 3.90432C14.7531 4.66392 14.3161 5.33487 13.6934 5.79142C13.0707 6.24796 12.3051 6.45875 11.54 6.38426C10.7748 6.30978 10.0628 5.95515 9.53731 5.38684L6.22142 7.21853C6.34868 7.73153 6.34868 8.26847 6.22142 8.78147L9.53652 10.6132C10.062 10.0449 10.7741 9.69022 11.5392 9.61574C12.3043 9.54125 13.0699 9.75204 13.6926 10.2086C14.3153 10.6651 14.7523 11.3361 14.9216 12.0957C15.091 12.8553 14.981 13.6514 14.6125 14.3347C14.2439 15.0181 13.642 15.5418 12.9195 15.8077C12.1971 16.0736 11.4037 16.0634 10.6881 15.7791C9.97257 15.4948 9.38392 14.9558 9.03253 14.2632C8.68114 13.5706 8.59114 12.7719 8.77939 12.0169V12.0177ZM3.15816 9.59973C3.57694 9.59973 3.97856 9.43119 4.27468 9.13118C4.5708 8.83117 4.73716 8.42428 4.73716 8C4.73716 7.57572 4.5708 7.16883 4.27468 6.86882C3.97856 6.56881 3.57694 6.40027 3.15816 6.40027C2.73938 6.40027 2.33776 6.56881 2.04164 6.86882C1.74552 7.16883 1.57916 7.57572 1.57916 8C1.57916 8.42428 1.74552 8.83117 2.04164 9.13118C2.33776 9.43119 2.73938 9.59973 3.15816 9.59973ZM11.8426 4.80053C12.2614 4.80053 12.663 4.63199 12.9592 4.33198C13.2553 4.03197 13.4216 3.62508 13.4216 3.2008C13.4216 2.77653 13.2553 2.36963 12.9592 2.06962C12.663 1.76961 12.2614 1.60107 11.8426 1.60107C11.4239 1.60107 11.0222 1.76961 10.7261 2.06962C10.43 2.36963 10.2636 2.77653 10.2636 3.2008C10.2636 3.62508 10.43 4.03197 10.7261 4.33198C11.0222 4.63199 11.4239 4.80053 11.8426 4.80053ZM11.8426 14.3989C12.2614 14.3989 12.663 14.2304 12.9592 13.9304C13.2553 13.6304 13.4216 13.2235 13.4216 12.7992C13.4216 12.3749 13.2553 11.968 12.9592 11.668C12.663 11.368 12.2614 11.1995 11.8426 11.1995C11.4239 11.1995 11.0222 11.368 10.7261 11.668C10.43 11.968 10.2636 12.3749 10.2636 12.7992C10.2636 13.2235 10.43 13.6304 10.7261 13.9304C11.0222 14.2304 11.4239 14.3989 11.8426 14.3989Z" fill="#111032"/>
</svg>
